<?xml version="1.0" encoding="UTF-8"?>
<svg version="1.1" xmlns="http://www.w3.org/2000/svg" width="892" height="456">
<path d="M0 0 C0.66 0.33 1.32 0.66 2 1 C2 1.66 2 2.32 2 3 C2.66 3 3.32 3 4 3 C4 5.64 4 8.28 4 11 C4.66 11 5.32 11 6 11 C6 12.98 6 14.96 6 17 C6.66 17 7.32 17 8 17 C8.495 22.445 8.495 22.445 9 28 C9.66 28 10.32 28 11 28 C11 29.65 11 31.3 11 33 C11.66 33 12.32 33 13 33 C13.53394179 34.4117783 14.05165104 35.82970244 14.5625 37.25 C14.85253906 38.03890625 15.14257812 38.8278125 15.44140625 39.640625 C16.05508807 42.23267967 16.0712586 43.56678952 15 46 C11.50967481 47.16344173 10.43292372 46.76539718 7 45.6875 C6.13375 45.42324219 5.2675 45.15898438 4.375 44.88671875 C2 44 2 44 -1 42 C-2.34160136 41.52536394 -3.69787311 41.0911918 -5.0625 40.6875 C-9.50224945 39.267939 -13.5182629 37.34581308 -17.640625 35.18359375 C-20.00941014 33.93712446 -20.00941014 33.93712446 -22.671875 33.03515625 C-25 32 -25 32 -27 29 C-27.30078125 27.0625 -27.30078125 27.0625 -27.3125 25 C-27.32925781 24.319375 -27.34601563 23.63875 -27.36328125 22.9375 C-26.87174059 20.31594984 -26.17568389 19.54300594 -24 18 C-21.08203125 17.26953125 -21.08203125 17.26953125 -17.8125 16.8125 C-16.72582031 16.65394531 -15.63914062 16.49539062 -14.51953125 16.33203125 C-13.68808594 16.22246094 -12.85664062 16.11289063 -12 16 C-11.35430415 12.90174513 -10.81035561 9.83014017 -10.4375 6.6875 C-10.293125 5.470625 -10.14875 4.25375 -10 3 C-9.34 3 -8.68 3 -8 3 C-8 2.34 -8 1.68 -8 1 C-5.26094655 -0.36952673 -3.02912668 -0.12621361 0 0 Z " fill="#FBB336" transform="translate(117,65)"/>
<path d="M0 0 C6.625 -0.25 6.625 -0.25 10 2 C10 2.66 10 3.32 10 4 C10.66 4 11.32 4 12 4 C12 4.66 12 5.32 12 6 C12.66 6 13.32 6 14 6 C14 6.66 14 7.32 14 8 C14.66 8 15.32 8 16 8 C16.33 9.65 16.66 11.3 17 13 C17.66 13 18.32 13 19 13 C19 13.66 19 14.32 19 15 C19.66 15 20.32 15 21 15 C21 15.99 21 16.98 21 18 C21.66 18 22.32 18 23 18 C23.33 19.65 23.66 21.3 24 23 C24.66 23 25.32 23 26 23 C26 23.99 26 24.98 26 26 C26.66 26 27.32 26 28 26 C31 31.625 31 31.625 31 35 C31.66 35 32.32 35 33 35 C33 36.32 33 37.64 33 39 C33.66 39 34.32 39 35 39 C35 39.99 35 40.98 35 42 C35.66 42 36.32 42 37 42 C37.495 44.97 37.495 44.97 38 48 C38.66 48 39.32 48 40 48 C40 49.65 40 51.3 40 53 C40.66 53 41.32 53 42 53 C45 59.5 45 59.5 45 64 C45.66 64 46.32 64 47 64 C47.19335938 64.59167969 47.38671875 65.18335937 47.5859375 65.79296875 C47.97652344 66.97826172 47.97652344 66.97826172 48.375 68.1875 C48.64570313 69.01378906 48.91640625 69.84007812 49.1953125 70.69140625 C49.98430704 73.08968315 49.98430704 73.08968315 51.25 75.625 C52.29978816 78.94932917 51.66132784 81.627228 51 85 C44.25 84.125 44.25 84.125 42 83 C42 82.01 42 81.02 42 80 C41.34 80 40.68 80 40 80 C40 78.02 40 76.04 40 74 C39.34 74 38.68 74 38 74 C37.67 72.02 37.34 70.04 37 68 C36.34 68 35.68 68 35 68 C35 66.68 35 65.36 35 64 C34.34 64 33.68 64 33 64 C30.96564469 60.27034861 30 58.33094958 30 54 C29.34 54 28.68 54 28 54 C28 53.01 28 52.02 28 51 C27.34 51 26.68 51 26 51 C26 49.68 26 48.36 26 47 C25.34 47 24.68 47 24 47 C23.67 45.02 23.34 43.04 23 41 C22.34 41 21.68 41 21 41 C21 39.68 21 38.36 21 37 C20.34 37 19.68 37 19 37 C16 31.25 16 31.25 16 29 C15.34 29 14.68 29 14 29 C14 27.68 14 26.36 14 25 C13.34 25 12.68 25 12 25 C12 23.68 12 22.36 12 21 C11.34 21 10.68 21 10 21 C9.67 19.35 9.34 17.7 9 16 C8.34 16 7.68 16 7 16 C7 15.01 7 14.02 7 13 C6.34 13 5.68 13 5 13 C2 7.25 2 7.25 2 5 C1.34 5 0.68 5 0 5 C0 3.35 0 1.7 0 0 Z " fill="#FBB439" transform="translate(196,60)"/>
<path d="M0 0 C2.375 1 2.375 1 4 2 C4 2.66 4 3.32 4 4 C4.66 4.2475 5.32 4.495 6 4.75 C9.76239511 6.31766463 13.36791702 8.15676321 17 10 C18.87445558 10.93858806 20.7495008 11.87599907 22.625 12.8125 C36.75 19.875 50.875 26.9375 65 34 C65 34.66 65 35.32 65 36 C65.66 36 66.32 36 67 36 C67 36.99 67 37.98 67 39 C66.34 39 65.68 39 65 39 C65 39.66 65 40.32 65 41 C59.45548173 42.16164072 55.93741521 41.71138217 50.625 39.8125 C49.97015625 39.58127441 49.3153125 39.35004883 48.640625 39.11181641 C44.3870939 37.58504252 40.21342944 35.91715636 36.125 33.9921875 C34.36311882 33.16954445 32.56947291 32.41533476 30.76953125 31.6796875 C26.54046649 29.87431045 22.63360862 27.59990478 18.6875 25.25 C17.94346924 24.80897949 17.19943848 24.36795898 16.43286133 23.91357422 C1.25490608 14.83353619 1.25490608 14.83353619 -4 9 C-4 8.34 -4 7.68 -4 7 C-4.66 7 -5.32 7 -6 7 C-6 6.34 -6 5.68 -6 5 C-6.66 5 -7.32 5 -8 5 C-8 3.68 -8 2.36 -8 1 C-5.2201184 -0.3899408 -3.0813674 -0.18488204 0 0 Z " fill="#FBB337" transform="translate(143,114)"/>
<path d="M0 0 C2 1 2 1 2.6875 2.875 C3 5 3 5 2 8 C1.34 8 0.68 8 0 8 C-0.33 9.65 -0.66 11.3 -1 13 C-1.66 13 -2.32 13 -3 13 C-3 14.32 -3 15.64 -3 17 C-3.66 17 -4.32 17 -5 17 C-5.495 19.475 -5.495 19.475 -6 22 C-6.66 22 -7.32 22 -8 22 C-8 22.99 -8 23.98 -8 25 C-8.66 25 -9.32 25 -10 25 C-10 26.32 -10 27.64 -10 29 C-10.66 29 -11.32 29 -12 29 C-12.0825 29.680625 -12.165 30.36125 -12.25 31.0625 C-13.22332528 34.8746907 -14.95807455 37.64070329 -17 41 C-17.66 41 -18.32 41 -19 41 C-19.103125 41.9075 -19.20625 42.815 -19.3125 43.75 C-20.02060566 47.09740858 -20.9155136 48.394392 -23 51 C-23.70514846 53.14733927 -23.70514846 53.14733927 -24 55 C-24.66 55 -25.32 55 -26 55 C-26.0825 55.7425 -26.165 56.485 -26.25 57.25 C-27.19335472 60.70896732 -28.08405679 61.90650231 -31 64 C-34.41686834 64.87282379 -37.73725806 65.63137097 -41 64 C-41.125 57.375 -41.125 57.375 -40 54 C-39.34 54 -38.68 54 -38 54 C-37.34 52.02 -36.68 50.04 -36 48 C-35.34 48 -34.68 48 -34 48 C-33.505 45.03 -33.505 45.03 -33 42 C-32.34 42 -31.68 42 -31 42 C-31 41.01 -31 40.02 -31 39 C-30.34 39 -29.68 39 -29 39 C-29 37.68 -29 36.36 -29 35 C-28.34 35 -27.68 35 -27 35 C-26.505 32.03 -26.505 32.03 -26 29 C-25.34 29 -24.68 29 -24 29 C-24 28.01 -24 27.02 -24 26 C-23.34 26 -22.68 26 -22 26 C-22 25.01 -22 24.02 -22 23 C-21.34 23 -20.68 23 -20 23 C-19.67 21.02 -19.34 19.04 -19 17 C-18.34 17 -17.68 17 -17 17 C-17 16.01 -17 15.02 -17 14 C-16.34 14 -15.68 14 -15 14 C-15 12.35 -15 10.7 -15 9 C-14.34 9 -13.68 9 -13 9 C-12.95875 8.2575 -12.9175 7.515 -12.875 6.75 C-12 4 -12 4 -9.3125 1.6875 C-5.78743288 -0.10828891 -3.88740629 -0.44175071 0 0 Z " fill="#FBBC4E" transform="translate(753,128)"/>
<path d="M0 0 C0.66 0.33 1.32 0.66 2 1 C2.625 4.0625 2.625 4.0625 3 7 C3.66 7 4.32 7 5 7 C5 8.98 5 10.96 5 13 C9.54136371 12.42977272 9.54136371 12.42977272 14 11.4375 C16.99783506 10.78172358 19.94439182 10.9412383 23 11 C24.125 14.75 24.125 14.75 23 17 C22.34 17 21.68 17 21 17 C21 17.66 21 18.32 21 19 C20.34 19 19.68 19 19 19 C19 19.66 19 20.32 19 21 C18.34 21 17.68 21 17 21 C16.67 21.99 16.34 22.98 16 24 C15.34 24 14.68 24 14 24 C14 24.66 14 25.32 14 26 C13.34 26 12.68 26 12 26 C12 26.99 12 27.98 12 29 C10.625 30.6875 10.625 30.6875 9 32 C8.34 32 7.68 32 7 32 C7 32.66 7 33.32 7 34 C6.34 34 5.68 34 5 34 C5 34.99 5 35.98 5 37 C4.34 37 3.68 37 3 37 C2.67 37.99 2.34 38.98 2 40 C1.34 40 0.68 40 0 40 C-0.33 40.99 -0.66 41.98 -1 43 C-4.63 42.67 -8.26 42.34 -12 42 C-12.09765625 35.84765625 -12.09765625 35.84765625 -12 34 C-11.505 33.505 -11.505 33.505 -11 33 C-10.9010706 30.83519203 -10.870289 28.66706215 -10.875 26.5 C-10.87242187 25.3140625 -10.86984375 24.128125 -10.8671875 22.90625 C-10.66789781 20.10740578 -10.66789781 20.10740578 -12 19 C-12.125 16 -12.125 16 -12 13 C-11.67 12.67 -11.34 12.34 -11 12 C-10.46620556 9.16505808 -10.03490823 6.32007381 -9.59765625 3.46875 C-9.40042969 2.6540625 -9.20320313 1.839375 -9 1 C-6.01405576 -0.49297212 -3.29146376 -0.11755228 0 0 Z " fill="#FBB337" transform="translate(318,26)"/>
<path d="M0 0 C1.5625 1.125 1.5625 1.125 2.5625 3.125 C2.63200541 4.66523996 2.64702357 6.20834988 2.625 7.75 C2.61597656 8.56726563 2.60695313 9.38453125 2.59765625 10.2265625 C2.58605469 10.85304687 2.57445312 11.47953125 2.5625 12.125 C3.2225 12.125 3.8825 12.125 4.5625 12.125 C4.5625 14.435 4.5625 16.745 4.5625 19.125 C5.2225 19.125 5.8825 19.125 6.5625 19.125 C6.68625 20.135625 6.81 21.14625 6.9375 22.1875 C7.4602863 26.08241309 7.4602863 26.08241309 8.625 29.5625 C9.70021707 33.64832486 9.71003192 36.92034017 9.5625 41.125 C10.2225 41.125 10.8825 41.125 11.5625 41.125 C11.5625 43.435 11.5625 45.745 11.5625 48.125 C12.2225 48.125 12.8825 48.125 13.5625 48.125 C14.99273178 52.79709049 15.96630045 57.25603697 16.5625 62.125 C15.31997321 62.96943568 14.0681114 63.8001458 12.8125 64.625 C11.76835938 65.32109375 11.76835938 65.32109375 10.703125 66.03125 C8.5625 67.125 8.5625 67.125 4.5625 67.125 C4.5625 64.485 4.5625 61.845 4.5625 59.125 C3.9025 59.125 3.2425 59.125 2.5625 59.125 C1.4047494 55.65174819 1.49383348 52.76432552 1.5625 49.125 C0.9025 49.125 0.2425 49.125 -0.4375 49.125 C-0.4375 46.485 -0.4375 43.845 -0.4375 41.125 C-1.0975 41.125 -1.7575 41.125 -2.4375 41.125 C-2.94494423 39.23114563 -3.44314574 37.33481334 -3.9375 35.4375 C-4.2159375 34.38175781 -4.494375 33.32601562 -4.78125 32.23828125 C-5.3766715 29.41357328 -5.56536492 26.99663292 -5.4375 24.125 C-6.0975 24.125 -6.7575 24.125 -7.4375 24.125 C-9.44917675 18.34142935 -9.65834624 13.22281001 -9.4375 7.125 C-10.0975 7.125 -10.7575 7.125 -11.4375 7.125 C-11.7675 5.805 -12.0975 4.485 -12.4375 3.125 C-13.0975 3.125 -13.7575 3.125 -14.4375 3.125 C-14.1075 2.135 -13.7775 1.145 -13.4375 0.125 C-8.9583651 -1.36804497 -4.44534049 -1.59576325 0 0 Z " fill="#FEFBF6" transform="translate(677.4375,121.875)"/>
<path d="M0 0 C2.475 0.495 2.475 0.495 5 1 C5.56625617 8.43683101 5.34134403 13.53204114 1.29296875 19.87109375 C-0.38262083 22.62999503 -1.24275136 25.40241777 -2.17578125 28.4765625 C-3.19386913 31.59355195 -4.44769193 34.58972759 -5.6875 37.625 C-7.55122406 42.38475038 -8.58991604 45.92672209 -8 51 C-8.66 51 -9.32 51 -10 51 C-10 52.32 -10 53.64 -10 55 C-10.66 55 -11.32 55 -12 55 C-12 56.32 -12 57.64 -12 59 C-12.66 59 -13.32 59 -14 59 C-14.33 60.98 -14.66 62.96 -15 65 C-15.66 65 -16.32 65 -17 65 C-17 65.99 -17 66.98 -17 68 C-17.66 68 -18.32 68 -19 68 C-19.495 68.99 -19.495 68.99 -20 70 C-23.96 69.505 -23.96 69.505 -28 69 C-27.34 66.03 -26.68 63.06 -26 60 C-25.34 60 -24.68 60 -24 60 C-24 57.36 -24 54.72 -24 52 C-23.34 52 -22.68 52 -22 52 C-21.67 48.7 -21.34 45.4 -21 42 C-20.34 42 -19.68 42 -19 42 C-19 40.35 -19 38.7 -19 37 C-18.34 37 -17.68 37 -17 37 C-17 35.35 -17 33.7 -17 32 C-16.34 32 -15.68 32 -15 32 C-14.67 29.36 -14.34 26.72 -14 24 C-13.34 24 -12.68 24 -12 24 C-12 22.68 -12 21.36 -12 20 C-11.34 20 -10.68 20 -10 20 C-10 18.68 -10 17.36 -10 16 C-9.34 16 -8.68 16 -8 16 C-7.67 13.69 -7.34 11.38 -7 9 C-6.34 9 -5.68 9 -5 9 C-5 8.34 -5 7.68 -5 7 C-4.34 7 -3.68 7 -3 7 C-3 6.01 -3 5.02 -3 4 C-2.34 4 -1.68 4 -1 4 C-0.67 2.68 -0.34 1.36 0 0 Z " fill="#FBBA49" transform="translate(302,73)"/>
<path d="M0 0 C0.99 0.495 0.99 0.495 2 1 C2 4 2 4 0.625 5.6875 C-1 7 -1 7 -3 7 C-3 7.66 -3 8.32 -3 9 C-3.66 9 -4.32 9 -5 9 C-5 9.66 -5 10.32 -5 11 C-5.61488281 11.32613281 -6.22976563 11.65226563 -6.86328125 11.98828125 C-7.67152344 12.42527344 -8.47976563 12.86226562 -9.3125 13.3125 C-10.11300781 13.74175781 -10.91351563 14.17101562 -11.73828125 14.61328125 C-13.85103199 15.90866383 -15.29366793 17.23010829 -17 19 C-18.9798099 20.0394002 -20.98582 21.0288775 -23 22 C-24.05574219 22.63228516 -24.05574219 22.63228516 -25.1328125 23.27734375 C-31.22510283 26.87733349 -37.46881496 29.41806706 -44.125 31.75 C-44.9598291 32.04358398 -45.7946582 32.33716797 -46.65478516 32.63964844 C-54.38292012 35.27406686 -61.89048017 37.10887243 -70.0625 37.625 C-71.18785156 37.69976562 -72.31320312 37.77453125 -73.47265625 37.8515625 C-74.30667969 37.90054688 -75.14070313 37.94953125 -76 38 C-76.33 36.35 -76.66 34.7 -77 33 C-75.73736328 32.84337891 -75.73736328 32.84337891 -74.44921875 32.68359375 C-70.65067893 31.93076876 -67.32387168 30.63810415 -63.8125 29.0625 C-63.12542969 28.75820068 -62.43835938 28.45390137 -61.73046875 28.14038086 C-54.5498408 24.89832091 -47.62023795 21.19842555 -40.67578125 17.484375 C-35.10576078 14.50850072 -29.46357203 11.68864313 -23.80078125 8.89453125 C-21.21480253 7.61649551 -18.65466043 6.2990923 -16.10546875 4.94921875 C-15.16344604 4.45748169 -15.16344604 4.45748169 -14.20239258 3.95581055 C-12.49282836 3.06162967 -10.78914943 2.15622203 -9.0859375 1.25 C-5.77348868 -0.09175142 -3.53765867 -0.32436985 0 0 Z " fill="#FBBB4B" transform="translate(382,118)"/>
<path d="M0 0 C0.33 0.66 0.66 1.32 1 2 C4.02934491 2.65772428 4.02934491 2.65772428 7 3 C7.33 3.99 7.66 4.98 8 6 C8.66 6 9.32 6 10 6 C10 6.99 10 7.98 10 9 C10.66 9 11.32 9 12 9 C12 9.66 12 10.32 12 11 C12.66 11 13.32 11 14 11 C17 15.38461538 17 15.38461538 17 18 C17.66 18 18.32 18 19 18 C19 18.66 19 19.32 19 20 C19.66 20 20.32 20 21 20 C21.33 21.98 21.66 23.96 22 26 C23.32 26.33 24.64 26.66 26 27 C26 27.99 26 28.98 26 30 C26.66 30 27.32 30 28 30 C28.33 31.32 28.66 32.64 29 34 C29.66 34 30.32 34 31 34 C31 34.66 31 35.32 31 36 C31.66 36 32.32 36 33 36 C33.495 38.97 33.495 38.97 34 42 C34.66 42 35.32 42 36 42 C36 42.66 36 43.32 36 44 C36.66 44 37.32 44 38 44 C38 46.64 38 49.28 38 52 C31.375 52.25 31.375 52.25 28 50 C28 49.01 28 48.02 28 47 C27.34 47 26.68 47 26 47 C26 46.34 26 45.68 26 45 C25.34 45 24.68 45 24 45 C24 44.01 24 43.02 24 42 C22.515 41.505 22.515 41.505 21 41 C19.8125 38.4375 19.8125 38.4375 19 36 C18.34 36 17.68 36 17 36 C14.70351351 33.4385343 14 32.52032428 14 29 C13.34 29 12.68 29 12 29 C12 28.34 12 27.68 12 27 C11.34 27 10.68 27 10 27 C10 26.34 10 25.68 10 25 C9.34 25 8.68 25 8 25 C7.67 23.68 7.34 22.36 7 21 C6.34 21 5.68 21 5 21 C5 20.01 5 19.02 5 18 C4.34 18 3.68 18 3 18 C3 17.34 3 16.68 3 16 C2.34 16 1.68 16 1 16 C0.67 14.68 0.34 13.36 0 12 C-0.66 12 -1.32 12 -2 12 C-3.12377697 8.69564916 -2.89554742 6.9493138 -1.5625 3.75 C-1.27503906 3.04359375 -0.98757813 2.3371875 -0.69140625 1.609375 C-0.46324219 1.07828125 -0.23507812 0.5471875 0 0 Z " fill="#FBB337" transform="translate(719,243)"/>
<path d="M0 0 C0.79953138 3.28696233 1.09658936 4.71023192 0 8 C-0.66 8 -1.32 8 -2 8 C-2 8.66 -2 9.32 -2 10 C-3.32 10.33 -4.64 10.66 -6 11 C-6.33 12.32 -6.66 13.64 -7 15 C-7.66 15 -8.32 15 -9 15 C-9 15.66 -9 16.32 -9 17 C-9.66 17 -10.32 17 -11 17 C-11 17.66 -11 18.32 -11 19 C-12.375 20.625 -12.375 20.625 -14 22 C-14.66 22 -15.32 22 -16 22 C-16.268125 22.5775 -16.53625 23.155 -16.8125 23.75 C-18.02929189 26.05550043 -19.30333879 28.02056192 -21 30 C-21.66 30 -22.32 30 -23 30 C-23 30.66 -23 31.32 -23 32 C-23.66 32 -24.32 32 -25 32 C-25 32.66 -25 33.32 -25 34 C-27.475 34.495 -27.475 34.495 -30 35 C-30 35.66 -30 36.32 -30 37 C-33.08888522 39.05925681 -33.70935927 39.2390374 -37.1875 39.125 C-38.445625 39.08375 -39.70375 39.0425 -41 39 C-41 35.89448334 -40.4606285 34.64738916 -39 32 C-38.34 32 -37.68 32 -37 32 C-37 31.34 -37 30.68 -37 30 C-36.34 30 -35.68 30 -35 30 C-35 29.34 -35 28.68 -35 28 C-34.34 28 -33.68 28 -33 28 C-32.67 26.68 -32.34 25.36 -32 24 C-31.34 24 -30.68 24 -30 24 C-30 23.34 -30 22.68 -30 22 C-29.360625 21.525625 -28.72125 21.05125 -28.0625 20.5625 C-25.71627037 19.0908635 -25.71627037 19.0908635 -25 16 C-24.34 16 -23.68 16 -23 16 C-23 15.34 -23 14.68 -23 14 C-21.68799596 12.64567325 -20.35368596 11.31266518 -19 10 C-18.67 9.34 -18.34 8.68 -18 8 C-17.34 8 -16.68 8 -16 8 C-16 7.34 -16 6.68 -16 6 C-13.4385343 3.70351351 -12.52032428 3 -9 3 C-9 2.34 -9 1.68 -9 1 C-6.04335481 -0.4783226 -3.25770263 -0.06032783 0 0 Z " fill="#FBC15B" transform="translate(158,274)"/>
<path d="M0 0 C3.5625 0.125 3.5625 0.125 5.5625 1.125 C5.5625 1.785 5.5625 2.445 5.5625 3.125 C6.2225 3.125 6.8825 3.125 7.5625 3.125 C7.5625 4.445 7.5625 5.765 7.5625 7.125 C8.2225 7.125 8.8825 7.125 9.5625 7.125 C9.8925 9.105 10.2225 11.085 10.5625 13.125 C11.2225 13.125 11.8825 13.125 12.5625 13.125 C12.5625 13.785 12.5625 14.445 12.5625 15.125 C13.2225 15.125 13.8825 15.125 14.5625 15.125 C14.5625 15.785 14.5625 16.445 14.5625 17.125 C15.2225 17.125 15.8825 17.125 16.5625 17.125 C16.8925 19.105 17.2225 21.085 17.5625 23.125 C18.2225 23.125 18.8825 23.125 19.5625 23.125 C21.5625 26.125 21.5625 26.125 21.5625 29.125 C22.2225 29.125 22.8825 29.125 23.5625 29.125 C25.1875 30.5 25.1875 30.5 26.5625 32.125 C26.5625 32.785 26.5625 33.445 26.5625 34.125 C27.2225 34.125 27.8825 34.125 28.5625 34.125 C28.5625 34.785 28.5625 35.445 28.5625 36.125 C29.2225 36.125 29.8825 36.125 30.5625 36.125 C30.2325 37.115 29.9025 38.105 29.5625 39.125 C24.91841467 40.67302844 21.10290175 40.84603912 16.625 38.75 C15.944375 38.21375 15.26375 37.6775 14.5625 37.125 C14.5625 36.465 14.5625 35.805 14.5625 35.125 C13.9025 35.125 13.2425 35.125 12.5625 35.125 C10.52080515 32.21951118 9.5625 30.72357954 9.5625 27.125 C8.9025 27.125 8.2425 27.125 7.5625 27.125 C7.5625 26.465 7.5625 25.805 7.5625 25.125 C6.9025 25.125 6.2425 25.125 5.5625 25.125 C5.2325 22.815 4.9025 20.505 4.5625 18.125 C3.9025 18.125 3.2425 18.125 2.5625 18.125 C2.5625 17.135 2.5625 16.145 2.5625 15.125 C1.9025 15.125 1.2425 15.125 0.5625 15.125 C0.5625 14.465 0.5625 13.805 0.5625 13.125 C-0.0975 13.125 -0.7575 13.125 -1.4375 13.125 C-1.7675 11.145 -2.0975 9.165 -2.4375 7.125 C-3.0975 7.125 -3.7575 7.125 -4.4375 7.125 C-4.48004356 5.12545254 -4.47830783 3.12458364 -4.4375 1.125 C-3.4375 0.125 -3.4375 0.125 0 0 Z " fill="#FEFCF7" transform="translate(134.4375,196.875)"/>
<path d="M0 0 C0.125 5.75 0.125 5.75 -1 8 C-1.88147705 7.99476318 -2.7629541 7.98952637 -3.67114258 7.98413086 C-6.99422888 7.96691731 -10.31726665 7.95446737 -13.64038086 7.94506836 C-15.06877396 7.94009138 -16.49716212 7.93330738 -17.92553711 7.92456055 C-25.55375823 7.87907484 -33.09008014 7.96387143 -40.68725586 8.76196289 C-43.75143707 9.07734098 -46.79568817 9.20392551 -49.875 9.25 C-51.44894531 9.28867187 -51.44894531 9.28867187 -53.0546875 9.328125 C-56.4763864 8.94692778 -58.33942961 8.17950785 -61 6 C-61 4.68 -61 3.36 -61 2 C-58.81694388 0.90847194 -57.43640777 0.78199788 -55.01611328 0.61108398 C-54.19410431 0.55109726 -53.37209534 0.49111053 -52.525177 0.42930603 C-51.63257172 0.36884598 -50.73996643 0.30838593 -49.8203125 0.24609375 C-48.89717255 0.18092056 -47.97403259 0.11574738 -47.0229187 0.04859924 C-45.06099821 -0.0887635 -43.09892501 -0.22395932 -41.13671875 -0.35717773 C-38.17140052 -0.55933667 -35.20681086 -0.77034489 -32.2421875 -0.98242188 C-4.97732987 -2.89567953 -4.97732987 -2.89567953 0 0 Z " fill="#FBB842" transform="translate(151,254)"/>
<path d="M0 0 C0 0.99 0 1.98 0 3 C-2.69299154 4.34649577 -4.77976039 4.12715928 -7.79492188 4.12939453 C-9.0095813 4.13254669 -10.22424072 4.13569885 -11.47570801 4.13894653 C-13.45226379 4.13591019 -13.45226379 4.13591019 -15.46875 4.1328125 C-16.82873553 4.13348588 -18.18872094 4.13445619 -19.54870605 4.13571167 C-22.40015813 4.13718703 -25.2515789 4.13503928 -28.10302734 4.13037109 C-31.76175173 4.12467389 -35.42040276 4.12795376 -39.07912445 4.13394356 C-41.88776199 4.13755354 -44.69638208 4.13640857 -47.50502014 4.13381577 C-49.51144457 4.13282231 -51.51786968 4.13586431 -53.52429199 4.13894653 C-55.34628113 4.13421829 -55.34628113 4.13421829 -57.20507812 4.12939453 C-58.81485535 4.12820114 -58.81485535 4.12820114 -60.45715332 4.12698364 C-63 4 -63 4 -65 3 C-65 2.34 -65 1.68 -65 1 C-64.34 1 -63.68 1 -63 1 C-63 0.34 -63 -0.32 -63 -1 C-61.31409158 -1.48473678 -59.62617455 -1.96248926 -57.9375 -2.4375 C-56.52791016 -2.83775391 -56.52791016 -2.83775391 -55.08984375 -3.24609375 C-38.94257077 -7.1859467 -15.02937983 -8.17200322 0 0 Z " fill="#FBB946" transform="translate(792,218)"/>
<path d="M0 0 C2.97 0.495 2.97 0.495 6 1 C6.33 1.99 6.66 2.98 7 4 C7.66 4 8.32 4 9 4 C9 4.66 9 5.32 9 6 C9.66 6 10.32 6 11 6 C11 6.66 11 7.32 11 8 C11.66 8 12.32 8 13 8 C13.33 9.65 13.66 11.3 14 13 C14.66 13 15.32 13 16 13 C16 13.66 16 14.32 16 15 C16.66 15 17.32 15 18 15 C18 15.99 18 16.98 18 18 C18.66 18 19.32 18 20 18 C20.33 19.65 20.66 21.3 21 23 C21.66 23 22.32 23 23 23 C23 23.99 23 24.98 23 26 C23.66 26 24.32 26 25 26 C28 31.625 28 31.625 28 35 C28.66 35 29.32 35 30 35 C30 36.32 30 37.64 30 39 C30.66 39 31.32 39 32 39 C32 39.99 32 40.98 32 42 C32.66 42 33.32 42 34 42 C34.495 44.97 34.495 44.97 35 48 C35.66 48 36.32 48 37 48 C37 49.65 37 51.3 37 53 C37.66 53 38.32 53 39 53 C42 59.5 42 59.5 42 64 C42.66 64 43.32 64 44 64 C44.19335938 64.59167969 44.38671875 65.18335937 44.5859375 65.79296875 C44.97652344 66.97826172 44.97652344 66.97826172 45.375 68.1875 C45.64570313 69.01378906 45.91640625 69.84007812 46.1953125 70.69140625 C46.98430704 73.08968315 46.98430704 73.08968315 48.25 75.625 C49.29978816 78.94932917 48.66132784 81.627228 48 85 C41.25 84.125 41.25 84.125 39 83 C39 82.01 39 81.02 39 80 C38.34 80 37.68 80 37 80 C37 78.02 37 76.04 37 74 C36.34 74 35.68 74 35 74 C34.67 72.02 34.34 70.04 34 68 C33.34 68 32.68 68 32 68 C32 66.68 32 65.36 32 64 C31.34 64 30.68 64 30 64 C27.96564469 60.27034861 27 58.33094958 27 54 C26.34 54 25.68 54 25 54 C25 53.01 25 52.02 25 51 C24.34 51 23.68 51 23 51 C23 49.68 23 48.36 23 47 C22.34 47 21.68 47 21 47 C20.67 45.02 20.34 43.04 20 41 C19.34 41 18.68 41 18 41 C18.33 39.68 18.66 38.36 19 37 C19.37697021 37.70382813 19.75394043 38.40765625 20.14233398 39.1328125 C27.30330006 52.49326313 34.4829557 65.8352293 42 79 C39.25522252 51.49190046 19.56367155 19.13370075 0 0 Z " fill="#FEFCF7" transform="translate(199,60)"/>
<path d="M0 0 C2.475 0.495 2.475 0.495 5 1 C6.11855553 5.1649744 7.23011703 9.33175956 8.33642578 13.5 C8.80028311 15.24757139 9.26485988 16.99495191 9.72998047 18.7421875 C11.52212686 25.48586648 13.28086837 32.23733156 15 39 C15.19045898 39.74330566 15.38091797 40.48661133 15.57714844 41.25244141 C17.42345617 48.57211246 18.41464049 54.54098653 17 62 C16.34 62 15.68 62 15 62 C11.61044356 57.59631751 10.55338549 52.40586753 9.1875 47.125 C8.93468262 46.16480957 8.68186523 45.20461914 8.42138672 44.21533203 C7.88660558 42.18263651 7.3544392 40.14925152 6.82470703 38.11523438 C6.00551913 35.02084785 5.14689288 31.93995087 4.27734375 28.859375 C-1.10575937 9.52181682 -1.10575937 9.52181682 0 0 Z " fill="#FBB336" transform="translate(670,123)"/>
<path d="M0 0 C2.375 1 2.375 1 4 2 C4 2.66 4 3.32 4 4 C4.66 4.2475 5.32 4.495 6 4.75 C9.76239511 6.31766463 13.36791702 8.15676321 17 10 C18.87445558 10.93858806 20.7495008 11.87599907 22.625 12.8125 C36.75 19.875 50.875 26.9375 65 34 C65 34.66 65 35.32 65 36 C65.66 36 66.32 36 67 36 C67 36.99 67 37.98 67 39 C66.34 39 65.68 39 65 39 C65 39.66 65 40.32 65 41 C59.45548173 42.16164072 55.93741521 41.71138217 50.625 39.8125 C49.97015625 39.58127441 49.3153125 39.35004883 48.640625 39.11181641 C44.3870939 37.58504252 40.21342944 35.91715636 36.125 33.9921875 C34.36311882 33.16954445 32.56947291 32.41533476 30.76953125 31.6796875 C26.54046649 29.87431045 22.63360862 27.59990478 18.6875 25.25 C17.94346924 24.80897949 17.19943848 24.36795898 16.43286133 23.91357422 C1.25490608 14.83353619 1.25490608 14.83353619 -4 9 C-4 8.34 -4 7.68 -4 7 C-4.66 7 -5.32 7 -6 7 C-6 6.34 -6 5.68 -6 5 C-6.66 5 -7.32 5 -8 5 C-8 3.68 -8 2.36 -8 1 C-5.2201184 -0.3899408 -3.0813674 -0.18488204 0 0 Z M-5 2 C1.02751944 16.79482043 24.14987783 26.6232425 37.86767578 32.57055664 C45.84643768 35.92598728 52.20986682 38.17235555 61 38 C61.33 37.01 61.66 36.02 62 35 C45.33535512 26.38819913 28.66642737 17.78341296 11.90386963 9.36331177 C10.59422119 8.70507287 9.28525846 8.04546786 7.97698975 7.38449097 C6.16248557 6.46841228 4.34499124 5.55826339 2.52734375 4.6484375 C1.50374756 4.13458496 0.48015137 3.62073242 -0.57446289 3.09130859 C-2.86069343 1.86323086 -2.86069343 1.86323086 -5 2 Z " fill="#FEFBF4" transform="translate(143,114)"/>
<path d="M0 0 C0.99 0.495 0.99 0.495 2 1 C2 4 2 4 0.625 5.6875 C-1 7 -1 7 -3 7 C-3 7.66 -3 8.32 -3 9 C-3.66 9 -4.32 9 -5 9 C-5 9.66 -5 10.32 -5 11 C-5.61488281 11.32613281 -6.22976563 11.65226563 -6.86328125 11.98828125 C-7.67152344 12.42527344 -8.47976563 12.86226562 -9.3125 13.3125 C-10.11300781 13.74175781 -10.91351563 14.17101562 -11.73828125 14.61328125 C-13.85103199 15.90866383 -15.29366793 17.23010829 -17 19 C-18.9798099 20.0394002 -20.98582 21.0288775 -23 22 C-24.05574219 22.63228516 -24.05574219 22.63228516 -25.1328125 23.27734375 C-31.22510283 26.87733349 -37.46881496 29.41806706 -44.125 31.75 C-44.9598291 32.04358398 -45.7946582 32.33716797 -46.65478516 32.63964844 C-54.38292012 35.27406686 -61.89048017 37.10887243 -70.0625 37.625 C-71.18785156 37.69976562 -72.31320312 37.77453125 -73.47265625 37.8515625 C-74.30667969 37.90054688 -75.14070313 37.94953125 -76 38 C-76.33 36.35 -76.66 34.7 -77 33 C-75.700625 32.8453125 -75.700625 32.8453125 -74.375 32.6875 C-70.92712305 32.14170242 -70.92712305 32.14170242 -67.8125 30.375 C-65 29 -65 29 -62 30 C-63.98 30.99 -63.98 30.99 -66 32 C-46.3845421 31.4923058 -23.22695891 19.91399688 -8.671875 6.921875 C-6.78833825 5.00512207 -6.78833825 5.00512207 -6 2 C-6.99 1.505 -6.99 1.505 -8 1 C-5.26094655 -0.36952673 -3.02912668 -0.12621361 0 0 Z " fill="#FEFCF7" transform="translate(382,118)"/>
<path d="M0 0 C5.75 -0.125 5.75 -0.125 8 1 C9.09036928 3.9737344 9.03864166 4.88407501 8 8 C7.34 8 6.68 8 6 8 C5.67 9.65 5.34 11.3 5 13 C4.34 13 3.68 13 3 13 C3 14.32 3 15.64 3 17 C2.34 17 1.68 17 1 17 C0.505 19.475 0.505 19.475 0 22 C-0.66 22 -1.32 22 -2 22 C-2 22.99 -2 23.98 -2 25 C-2.66 25 -3.32 25 -4 25 C-4 26.32 -4 27.64 -4 29 C-4.66 29 -5.32 29 -6 29 C-6.0825 29.680625 -6.165 30.36125 -6.25 31.0625 C-7.22332528 34.8746907 -8.95807455 37.64070329 -11 41 C-11.66 41 -12.32 41 -13 41 C-13.103125 41.9075 -13.20625 42.815 -13.3125 43.75 C-14.02060566 47.09740858 -14.9155136 48.394392 -17 51 C-17.70514846 53.14733927 -17.70514846 53.14733927 -18 55 C-18.66 55 -19.32 55 -20 55 C-20.0825 55.7425 -20.165 56.485 -20.25 57.25 C-21.19335472 60.70896732 -22.08405679 61.90650231 -25 64 C-28.41686834 64.87282379 -31.73725806 65.63137097 -35 64 C-35.125 57.375 -35.125 57.375 -34 54 C-33.34 54 -32.68 54 -32 54 C-32 55.98 -32 57.96 -32 60 C-29.59603476 59.86040656 -29.59603476 59.86040656 -27 59 C-25.25428589 56.97635365 -25.25428589 56.97635365 -23.94140625 54.3125 C-23.12506714 52.81638184 -23.12506714 52.81638184 -22.29223633 51.29003906 C-21.72142334 50.20432617 -21.15061035 49.11861328 -20.5625 48 C-19.32859614 45.72370288 -18.09420639 43.44766909 -16.859375 41.171875 C-16.22041244 39.98127575 -15.58174312 38.79051908 -14.94335938 37.59960938 C-11.81033277 31.77345932 -8.55391921 26.01631867 -5.3125 20.25 C-4.72476807 19.198125 -4.13703613 18.14625 -3.53149414 17.0625 C-2.98098389 16.07765625 -2.43047363 15.0928125 -1.86328125 14.078125 C-1.14072144 12.78503418 -1.14072144 12.78503418 -0.40356445 11.46582031 C0.58729879 9.72504474 1.61907227 8.00725186 2.67895508 6.30761719 C4.16560702 4.15388157 4.16560702 4.15388157 4 2 C2.68 1.34 1.36 0.68 0 0 Z " fill="#FEFCF8" transform="translate(747,128)"/>
<path d="M0 0 C0.33 0.66 0.66 1.32 1 2 C4.02934491 2.65772428 4.02934491 2.65772428 7 3 C7.33 3.99 7.66 4.98 8 6 C8.66 6 9.32 6 10 6 C10 6.99 10 7.98 10 9 C10.66 9 11.32 9 12 9 C12 9.66 12 10.32 12 11 C12.66 11 13.32 11 14 11 C17 15.38461538 17 15.38461538 17 18 C17.66 18 18.32 18 19 18 C19 18.66 19 19.32 19 20 C19.66 20 20.32 20 21 20 C21.33 21.98 21.66 23.96 22 26 C23.32 26.33 24.64 26.66 26 27 C26 27.99 26 28.98 26 30 C26.66 30 27.32 30 28 30 C28.33 31.32 28.66 32.64 29 34 C29.66 34 30.32 34 31 34 C31 34.66 31 35.32 31 36 C31.66 36 32.32 36 33 36 C33.495 38.97 33.495 38.97 34 42 C34.66 42 35.32 42 36 42 C36 42.66 36 43.32 36 44 C36.66 44 37.32 44 38 44 C38 46.64 38 49.28 38 52 C31.375 52.25 31.375 52.25 28 50 C28 49.01 28 48.02 28 47 C27.34 47 26.68 47 26 47 C26 46.34 26 45.68 26 45 C25.34 45 24.68 45 24 45 C24 44.01 24 43.02 24 42 C22.515 41.505 22.515 41.505 21 41 C19.8125 38.4375 19.8125 38.4375 19 36 C18.34 36 17.68 36 17 36 C14.70351351 33.4385343 14 32.52032428 14 29 C13.34 29 12.68 29 12 29 C12 28.34 12 27.68 12 27 C11.34 27 10.68 27 10 27 C10 26.34 10 25.68 10 25 C9.34 25 8.68 25 8 25 C7.67 23.68 7.34 22.36 7 21 C6.34 21 5.68 21 5 21 C5 20.01 5 19.02 5 18 C4.34 18 3.68 18 3 18 C3 17.34 3 16.68 3 16 C2.34 16 1.68 16 1 16 C0.67 14.68 0.34 13.36 0 12 C-0.66 12 -1.32 12 -2 12 C-2.625 10.125 -2.625 10.125 -3 8 C-2.34 7.34 -1.68 6.68 -1 6 C-0.63390625 6.62003906 -0.2678125 7.24007812 0.109375 7.87890625 C4.53797845 15.12283618 9.57198912 21.62923115 14.9296875 28.19921875 C16.94078488 30.66853284 18.90356372 33.16378331 20.8203125 35.70703125 C21.26270264 36.29371582 21.70509277 36.88040039 22.16088867 37.48486328 C23.36019461 39.08439658 24.55335943 40.68852918 25.74609375 42.29296875 C27.95993763 44.95188349 30.22457398 46.9490238 33 49 C32.58293958 43.33787458 31.27989556 40.42264836 27.6875 36.0625 C26.77714007 34.93611114 25.86835807 33.80844565 24.9609375 32.6796875 C24.47979492 32.08768555 23.99865234 31.49568359 23.50292969 30.88574219 C20.84827127 27.55491347 18.34418235 24.1120596 15.8125 20.6875 C9.26692368 10.6297649 9.26692368 10.6297649 0 4 C0 2.68 0 1.36 0 0 Z " fill="#FEFBF4" transform="translate(719,243)"/>
<path d="M0 0 C1.37871915 3.82977542 0.87113444 7.07989501 0 11 C-0.99 11.66 -1.98 12.32 -3 13 C-3.72794382 14.87922117 -3.72794382 14.87922117 -4.0625 17.0625 C-4.22363281 17.86945313 -4.38476562 18.67640625 -4.55078125 19.5078125 C-4.83474296 21.08318266 -5.10482041 22.66117491 -5.35546875 24.2421875 C-6.49105043 30.56096876 -9.03871417 35.91987771 -13 41 C-14.485 41.495 -14.485 41.495 -16 42 C-16.66 41.67 -17.32 41.34 -18 41 C-18 38.69 -18 36.38 -18 34 C-17.34 34 -16.68 34 -16 34 C-16 32.68 -16 31.36 -16 30 C-15.34 30 -14.68 30 -14 30 C-13.93941406 29.36191406 -13.87882813 28.72382813 -13.81640625 28.06640625 C-13.73261719 27.24011719 -13.64882812 26.41382813 -13.5625 25.5625 C-13.48128906 24.73878906 -13.40007812 23.91507813 -13.31640625 23.06640625 C-13 21 -13 21 -12 20 C-11.76924918 18.65252916 -11.58846937 17.29622435 -11.4375 15.9375 C-11.293125 14.638125 -11.14875 13.33875 -11 12 C-10.34 12 -9.68 12 -9 12 C-9 10.68 -9 9.36 -9 8 C-8.34 8 -7.68 8 -7 8 C-6.95875 7.4225 -6.9175 6.845 -6.875 6.25 C-5.55934042 2.86687535 -3.03447636 1.80777315 0 0 Z " fill="#FBBA49" transform="translate(193,192)"/>
<path d="M0 0 C5.75 -0.125 5.75 -0.125 8 1 C8 1.66 8 2.32 8 3 C8.66 3 9.32 3 10 3 C10 5.64 10 8.28 10 11 C10.66 11 11.32 11 12 11 C12 12.98 12 14.96 12 17 C12.66 17 13.32 17 14 17 C14.495 22.445 14.495 22.445 15 28 C15.66 28 16.32 28 17 28 C17 29.65 17 31.3 17 33 C17.66 33 18.32 33 19 33 C19.53394179 34.4117783 20.05165104 35.82970244 20.5625 37.25 C20.85253906 38.03890625 21.14257812 38.8278125 21.44140625 39.640625 C22.05508807 42.23267967 22.0712586 43.56678952 21 46 C17.50967481 47.16344173 16.43292372 46.76539718 13 45.6875 C12.13375 45.42324219 11.2675 45.15898438 10.375 44.88671875 C8 44 8 44 5 42 C3.65839864 41.52536394 2.30212689 41.0911918 0.9375 40.6875 C-3.50224945 39.267939 -7.5182629 37.34581308 -11.640625 35.18359375 C-14.00941014 33.93712446 -14.00941014 33.93712446 -16.671875 33.03515625 C-19 32 -19 32 -21 29 C-21.25760279 26.30547479 -21.08900053 23.71451625 -21 21 C-20.67 21 -20.34 21 -20 21 C-19.93135742 21.58007812 -19.86271484 22.16015625 -19.79199219 22.7578125 C-18.92106723 26.92176143 -18.01815292 29.30422351 -14.42773438 31.7578125 C-11.08136963 33.33694942 -7.71361492 34.69831466 -4.25 36 C-3.08210938 36.47566406 -1.91421875 36.95132813 -0.7109375 37.44140625 C4.90956765 39.67813789 9.96501583 41.29468611 16 42 C15.41717063 36.86886468 14.23901028 32.2542788 12.49609375 27.38671875 C12.2533522 26.69109329 12.01061066 25.99546783 11.76051331 25.27876282 C10.99220073 23.07950612 10.21544835 20.88336474 9.4375 18.6875 C8.65716859 16.47339674 7.87870596 14.25867819 7.10377502 12.04267883 C6.62308945 10.6692357 6.13909813 9.29694413 5.651474 7.9259491 C4 3.22330072 4 3.22330072 4 1 C2.68 0.67 1.36 0.34 0 0 Z " fill="#FEFCF9" transform="translate(111,65)"/>
<path d="M0 0 C0.79953138 3.28696233 1.09658936 4.71023192 0 8 C-0.66 8 -1.32 8 -2 8 C-2 8.66 -2 9.32 -2 10 C-3.32 10.33 -4.64 10.66 -6 11 C-6.33 12.32 -6.66 13.64 -7 15 C-7.66 15 -8.32 15 -9 15 C-9 15.66 -9 16.32 -9 17 C-9.66 17 -10.32 17 -11 17 C-11 17.66 -11 18.32 -11 19 C-12.375 20.625 -12.375 20.625 -14 22 C-14.66 22 -15.32 22 -16 22 C-16.268125 22.5775 -16.53625 23.155 -16.8125 23.75 C-18.02929189 26.05550043 -19.30333879 28.02056192 -21 30 C-21.66 30 -22.32 30 -23 30 C-23 30.66 -23 31.32 -23 32 C-23.66 32 -24.32 32 -25 32 C-25 32.66 -25 33.32 -25 34 C-27.475 34.495 -27.475 34.495 -30 35 C-30 35.66 -30 36.32 -30 37 C-33.08888522 39.05925681 -33.70935927 39.2390374 -37.1875 39.125 C-38.445625 39.08375 -39.70375 39.0425 -41 39 C-41 35.89448334 -40.4606285 34.64738916 -39 32 C-38.34 32.33 -37.68 32.66 -37 33 C-37.33 34.32 -37.66 35.64 -38 37 C-26.56177731 30.91777048 -9.16177624 14.48532873 -5 2 C-6.32 2.33 -7.64 2.66 -9 3 C-9 2.34 -9 1.68 -9 1 C-6.04335481 -0.4783226 -3.25770263 -0.06032783 0 0 Z " fill="#FEFDF9" transform="translate(158,274)"/>
<path d="M0 0 C0.125 5.75 0.125 5.75 -1 8 C-1.88147705 7.99476318 -2.7629541 7.98952637 -3.67114258 7.98413086 C-6.99422888 7.96691731 -10.31726665 7.95446737 -13.64038086 7.94506836 C-15.06877396 7.94009138 -16.49716212 7.93330738 -17.92553711 7.92456055 C-25.55375823 7.87907484 -33.09008014 7.96387143 -40.68725586 8.76196289 C-43.75143707 9.07734098 -46.79568817 9.20392551 -49.875 9.25 C-51.44894531 9.28867187 -51.44894531 9.28867187 -53.0546875 9.328125 C-56.4763864 8.94692778 -58.33942961 8.17950785 -61 6 C-61 4.68 -61 3.36 -61 2 C-58.35541621 0.67770811 -56.32238699 0.90322806 -53.375 0.9375 C-51.87066406 0.95103516 -51.87066406 0.95103516 -50.3359375 0.96484375 C-49.56507812 0.97644531 -48.79421875 0.98804688 -48 1 C-48 1.33 -48 1.66 -48 2 C-51.3 2 -54.6 2 -58 2 C-57.34 3.32 -56.68 4.64 -56 6 C-50.75770807 5.76395645 -45.51551133 5.52599812 -40.2734375 5.28515625 C-36.19559347 5.0981864 -32.11752946 4.91891015 -28.0390625 4.74609375 C-26.17187249 4.66411955 -24.3046849 4.58209046 -22.4375 4.5 C-21.56456299 4.46463135 -20.69162598 4.4292627 -19.79223633 4.39282227 C-15.76554977 4.21193209 -11.93289114 3.96512666 -8 3 C-8 2.34 -8 1.68 -8 1 C-15.59 0.67 -23.18 0.34 -31 0 C-31 -0.33 -31 -0.66 -31 -1 C-5.03967328 -2.98603592 -5.03967328 -2.98603592 0 0 Z " fill="#FEFBF4" transform="translate(151,254)"/>
<path d="M0 0 C1.32 0 2.64 0 4 0 C5.125 3.75 5.125 3.75 4 6 C3.34 6 2.68 6 2 6 C2 6.66 2 7.32 2 8 C1.34 8 0.68 8 0 8 C0 8.66 0 9.32 0 10 C-0.66 10 -1.32 10 -2 10 C-2.33 10.99 -2.66 11.98 -3 13 C-3.66 13 -4.32 13 -5 13 C-5 13.66 -5 14.32 -5 15 C-5.66 15 -6.32 15 -7 15 C-7 15.99 -7 16.98 -7 18 C-8.375 19.6875 -8.375 19.6875 -10 21 C-10.66 21 -11.32 21 -12 21 C-12 21.66 -12 22.32 -12 23 C-12.66 23 -13.32 23 -14 23 C-14 23.99 -14 24.98 -14 26 C-14.66 26 -15.32 26 -16 26 C-16.33 26.99 -16.66 27.98 -17 29 C-17.66 29 -18.32 29 -19 29 C-19.33 29.99 -19.66 30.98 -20 32 C-23.63 31.67 -27.26 31.34 -31 31 C-31 28.36 -31 25.72 -31 23 C-30.34 22.67 -29.68 22.34 -29 22 C-29 24.31 -29 26.62 -29 29 C-26.80085503 29.59197613 -26.80085503 29.59197613 -24 29 C-21.36127965 26.95044761 -19.20795927 24.49822978 -17 22 C-16.443125 21.37480469 -15.88625 20.74960937 -15.3125 20.10546875 C-14.16872496 18.80548369 -13.03353415 17.49790458 -11.90625 16.18359375 C-10.49604098 14.56821088 -9.05331608 12.98108533 -7.59375 11.41015625 C-6.7790625 10.53230469 -5.964375 9.65445313 -5.125 8.75 C-4.36445313 7.94046875 -3.60390625 7.1309375 -2.8203125 6.296875 C-1.06458058 4.08148794 -0.39230506 2.75879044 0 0 Z " fill="#FEFCF7" transform="translate(337,37)"/>
<path d="M0 0 C0.3403125 0.86625 0.3403125 0.86625 0.6875 1.75 C1.93074207 4.20085375 1.93074207 4.20085375 4.5625 6 C7.08066518 8.06618681 7.6619668 8.84502343 8 12 C4.81275857 13.89716752 2.75299308 15.03137471 -1 14.875 C-4.24519809 13.92848389 -7.03908095 12.62145567 -10 11 C-9.51392405 3.58734177 -9.51392405 3.58734177 -7.25 1 C-4.65550914 -0.15310705 -2.80997777 -0.23416481 0 0 Z " fill="#FBC058" transform="translate(398,104)"/>
<path d="M0 0 C1.1171875 3.7109375 1.1171875 3.7109375 0.0625 6.3125 C-1.25814394 9.65295232 -1.13959269 12.44038629 -1 16 C-1.66 16 -2.32 16 -3 16 C-3 17.32 -3 18.64 -3 20 C-3.66 20 -4.32 20 -5 20 C-5 21.32 -5 22.64 -5 24 C-5.66 24 -6.32 24 -7 24 C-7.33 25.98 -7.66 27.96 -8 30 C-8.66 30 -9.32 30 -10 30 C-10 30.99 -10 31.98 -10 33 C-10.66 33 -11.32 33 -12 33 C-12.33 33.66 -12.66 34.32 -13 35 C-16.96 34.505 -16.96 34.505 -21 34 C-20.34 31.03 -19.68 28.06 -19 25 C-18.34 25 -17.68 25 -17 25 C-17 22.36 -17 19.72 -17 17 C-16.34 17 -15.68 17 -15 17 C-15 21.29 -15 25.58 -15 30 C-9.16715313 20.30383897 -4.34163866 10.44706802 0 0 Z " fill="#FEFBF5" transform="translate(295,108)"/>
<path d="M0 0 C6.30267439 0.36776168 11.33251843 1.16625922 17 4 C17 4.99 17 5.98 17 7 C14.30700846 8.34649577 12.22023961 8.12715928 9.20507812 8.12939453 C7.9904187 8.13254669 6.77575928 8.13569885 5.52429199 8.13894653 C3.54773621 8.13591019 3.54773621 8.13591019 1.53125 8.1328125 C0.17126447 8.13348588 -1.18872094 8.13445619 -2.54870605 8.13571167 C-5.40015813 8.13718703 -8.2515789 8.13503928 -11.10302734 8.13037109 C-14.76175173 8.12467389 -18.42040276 8.12795376 -22.07912445 8.13394356 C-24.88776199 8.13755354 -27.69638208 8.13640857 -30.50502014 8.13381577 C-32.51144457 8.13282231 -34.51786968 8.13586431 -36.52429199 8.13894653 C-38.34628113 8.13421829 -38.34628113 8.13421829 -40.20507812 8.12939453 C-41.81485535 8.12820114 -41.81485535 8.12820114 -43.45715332 8.12698364 C-46 8 -46 8 -48 7 C-48 6.34 -48 5.68 -48 5 C-47.34 5 -46.68 5 -46 5 C-46 4.34 -46 3.68 -46 3 C-45.01 3.33 -44.02 3.66 -43 4 C-43.66 4 -44.32 4 -45 4 C-45 4.66 -45 5.32 -45 6 C-16.785 5.01 -16.785 5.01 12 4 C6.06 2.515 6.06 2.515 0 1 C0 0.67 0 0.34 0 0 Z " fill="#FEFCF9" transform="translate(775,214)"/>
<path d="M0 0 C4.7196116 4.45895606 7.92629183 9.70201964 11.4375 15.125 C12.09298828 16.12015625 12.74847656 17.1153125 13.42382812 18.140625 C17.39528953 24.24321164 20.91476172 30.40372235 24 37 C11.84973407 31.10465095 5.67731459 17.39893645 0.8125 5.4609375 C0 3 0 3 0 0 Z " fill="#FBB53C" transform="translate(133,197)"/>
<path d="M0 0 C0.66 0 1.32 0 2 0 C2.43344727 0.81154541 2.86689453 1.62309082 3.31347656 2.45922852 C4.93783805 5.49937167 6.56310395 8.53902778 8.18896484 11.57836914 C8.88951753 12.88839945 9.58971991 14.19861715 10.28955078 15.5090332 C11.30146422 17.40366428 12.31467854 19.29759484 13.328125 21.19140625 C13.9355957 22.32779541 14.54306641 23.46418457 15.16894531 24.63500977 C16.48543956 27.05437514 17.83470225 29.42777736 19.22949219 31.80053711 C21 35 21 35 21 37 C20.34 37 19.68 37 19 37 C16 31.25 16 31.25 16 29 C15.34 29 14.68 29 14 29 C14 27.68 14 26.36 14 25 C13.34 25 12.68 25 12 25 C12 23.68 12 22.36 12 21 C11.34 21 10.68 21 10 21 C9.67 19.35 9.34 17.7 9 16 C8.34 16 7.68 16 7 16 C7 15.01 7 14.02 7 13 C6.34 13 5.68 13 5 13 C2 7.25 2 7.25 2 5 C1.34 5 0.68 5 0 5 C0 3.35 0 1.7 0 0 Z " fill="#FEFAF3" transform="translate(196,60)"/>
<path d="M0 0 C6.30267439 0.36776168 11.33251843 1.16625922 17 4 C17 4.99 17 5.98 17 7 C14.04335481 8.4783226 11.25770263 8.06032783 8 8 C8 7.34 8 6.68 8 6 C0.74 6 -6.52 6 -14 6 C-14 5.67 -14 5.34 -14 5 C-5.42 4.67 3.16 4.34 12 4 C6.06 2.515 6.06 2.515 0 1 C0 0.67 0 0.34 0 0 Z " fill="#FEECCE" transform="translate(775,214)"/>
<path d="M0 0 C0.33 0 0.66 0 1 0 C1.56414413 7.40909296 1.37012176 12.53132544 -2.69921875 18.8359375 C-4.07550061 21.12560762 -4.84826663 23.26215619 -5.625 25.8125 C-6.61633752 29.05275749 -7.67492812 31.45349271 -10 34 C-9.39805136 30.68690974 -8.59520256 27.61500637 -7.44140625 24.453125 C-7.13783203 23.6075 -6.83425781 22.761875 -6.52148438 21.890625 C-5.88762963 20.1452653 -5.25223963 18.40046232 -4.61523438 16.65625 C-2.64074216 11.14603917 -1.15609321 5.73979944 0 0 Z " fill="#FEF6E7" transform="translate(306,74)"/>
<path d="M0 0 C1.50433594 0.01353516 1.50433594 0.01353516 3.0390625 0.02734375 C3.80992188 0.03894531 4.58078125 0.05054688 5.375 0.0625 C5.375 0.3925 5.375 0.7225 5.375 1.0625 C2.075 1.0625 -1.225 1.0625 -4.625 1.0625 C-3.965 2.3825 -3.305 3.7025 -2.625 5.0625 C2.655 5.0625 7.935 5.0625 13.375 5.0625 C10.375 8.0625 10.375 8.0625 7.4140625 8.4609375 C5.72410156 8.44933594 5.72410156 8.44933594 4 8.4375 C2.31777344 8.44910156 2.31777344 8.44910156 0.6015625 8.4609375 C-2.94312078 8.02321632 -4.87656451 7.33742226 -7.625 5.0625 C-7.625 3.7425 -7.625 2.4225 -7.625 1.0625 C-4.98041621 -0.25979189 -2.94738699 -0.03427194 0 0 Z " fill="#FEF4E2" transform="translate(97.625,254.9375)"/>
<path d="M0 0 C0.8971875 0.309375 0.8971875 0.309375 1.8125 0.625 C1.1525 1.181875 0.4925 1.73875 -0.1875 2.3125 C-2.44242211 4.46562308 -2.44242211 4.46562308 -2.4375 7.375 C-2.31375 8.48875 -2.31375 8.48875 -2.1875 9.625 C-2.8475 9.295 -3.5075 8.965 -4.1875 8.625 C-6.05806791 8.3974985 -7.93435958 8.21537189 -9.8125 8.0625 C-10.81539062 7.97871094 -11.81828125 7.89492187 -12.8515625 7.80859375 C-14.00785156 7.71771484 -14.00785156 7.71771484 -15.1875 7.625 C-13.2091411 5.6466411 -11.74250176 4.81323175 -9.25 3.625 C-1.2326931 -0.21131882 -1.2326931 -0.21131882 0 0 Z " fill="#FFFFFF" transform="translate(227.1875,161.375)"/>
<path d="M0 0 C0.66 0.33 1.32 0.66 2 1 C-0.97 9.25 -3.94 17.5 -7 26 C-8.14428839 21.42284644 -7.49613237 20.32216018 -6 16 C-5.55760646 13.3360215 -5.27811017 10.68839835 -5 8 C-4.34 8 -3.68 8 -3 8 C-3 6.68 -3 5.36 -3 4 C-2.34 4 -1.68 4 -1 4 C-0.67 2.68 -0.34 1.36 0 0 Z " fill="#FEFCF7" transform="translate(187,196)"/>
<path d="M0 0 C0.66 0.33 1.32 0.66 2 1 C2.625 4.0625 2.625 4.0625 3 7 C3.66 7 4.32 7 5 7 C5 8.98 5 10.96 5 13 C5.66 13.33 6.32 13.66 7 14 C5.68 14.33 4.36 14.66 3 15 C2.7525 13.783125 2.505 12.56625 2.25 11.3125 C1.2950075 7.41640742 -0.22781085 4.95700176 -3 2 C-4.98 2.33 -6.96 2.66 -9 3 C-9 2.34 -9 1.68 -9 1 C-6.01405576 -0.49297212 -3.29146376 -0.11755228 0 0 Z " fill="#FEF8EE" transform="translate(318,26)"/>
<path d="M0 0 C0.33 0 0.66 0 1 0 C0.51679152 6.2054142 -0.33318124 11.99945246 -2 18 C-5.3 17.67 -8.6 17.34 -12 17 C-12 16.67 -12 16.34 -12 16 C-9.36 15.67 -6.72 15.34 -4 15 C-3.05675742 10.68803391 -2.51958285 6.37934119 -2 2 C-1.34 2 -0.68 2 0 2 C0 1.34 0 0.68 0 0 Z " fill="#FEF6E8" transform="translate(109,66)"/>
<path d="M0 0 C0.66 0 1.32 0 2 0 C1.95875 1.11375 1.9175 2.2275 1.875 3.375 C1.58878141 7.04366025 1.58878141 7.04366025 4 9 C3.01 10.485 3.01 10.485 2 12 C0.68 11.67 -0.64 11.34 -2 11 C-2 8.69 -2 6.38 -2 4 C-1.34 4 -0.68 4 0 4 C0 2.68 0 1.36 0 0 Z " fill="#FEFBF4" transform="translate(177,222)"/>
<path d="M0 0 C2.86632944 2.86632944 3.2315668 6.29316426 4.125 10.125 C4.39763672 11.25615234 4.39763672 11.25615234 4.67578125 12.41015625 C5.12354709 14.27191946 5.56260722 16.13577253 6 18 C5.01 18 4.02 18 3 18 C1.8422494 14.52674819 1.93133348 11.63932552 2 8 C1.34 8 0.68 8 0 8 C0 5.36 0 2.72 0 0 Z " fill="#FEF6E9" transform="translate(677,163)"/>
<path d="M0 0 C-0.33 0.66 -0.66 1.32 -1 2 C-1.825 2.268125 -2.65 2.53625 -3.5 2.8125 C-6.23403242 3.75103755 -6.23403242 3.75103755 -6.875 6.4375 C-7.16089524 9.12077174 -7.16089524 9.12077174 -6 12 C-7.32 11.67 -8.64 11.34 -10 11 C-9.51392405 3.58734177 -9.51392405 3.58734177 -7.25 1 C-4.65550914 -0.15310705 -2.80997777 -0.23416481 0 0 Z " fill="#FEFBF6" transform="translate(398,104)"/>
<path d="M0 0 C0.99 0.33 1.98 0.66 3 1 C4.4053516 5.43795241 5.29241839 9.32130569 5 14 C4.34 14 3.68 14 3 14 C2.01 9.38 1.02 4.76 0 0 Z " fill="#FEF8EC" transform="translate(672,149)"/>
<path d="M0 0 C0.33 0 0.66 0 1 0 C1 2.31 1 4.62 1 7 C-2.3 6.67 -5.6 6.34 -9 6 C-9 5.67 -9 5.34 -9 5 C-6.36 4.67 -3.72 4.34 -1 4 C-0.67 2.68 -0.34 1.36 0 0 Z " fill="#FEFCF9" transform="translate(106,77)"/>
<path d="M0 0 C0.99 0 1.98 0 3 0 C3 1.98 3 3.96 3 6 C3.66 6.33 4.32 6.66 5 7 C3.68 7.33 2.36 7.66 1 8 C0.67 5.36 0.34 2.72 0 0 Z " fill="#FEFDFB" transform="translate(320,33)"/>
<path d="M0 0 C2.97 1.65 5.94 3.3 9 5 C8.67 5.66 8.34 6.32 8 7 C5.36 5.68 2.72 4.36 0 3 C0 2.01 0 1.02 0 0 Z " fill="#FEF5E4" transform="translate(195,142)"/>
<path d="M0 0 C0.99 0.495 0.99 0.495 2 1 C1.67 2.98 1.34 4.96 1 7 C0.67 7 0.34 7 0 7 C0 4.69 0 2.38 0 0 Z " fill="#FFFFFF" transform="translate(225,171)"/>
<path d="M0 0 C0.33 0.99 0.66 1.98 1 3 C0.01 3.99 -0.98 4.98 -2 6 C-1.49396008 3.83125748 -1.00016187 2.00032373 0 0 Z " fill="#FFFFFF" transform="translate(223,179)"/>
<path d="M0 0 C0.33 0 0.66 0 1 0 C1.33 1.98 1.66 3.96 2 6 C1.34 6 0.68 6 0 6 C0 4.02 0 2.04 0 0 Z " fill="#FFFFFF" transform="translate(709,195)"/>
<path d="M0 0 C0.33 1.32 0.66 2.64 1 4 C0.01 3.67 -0.98 3.34 -2 3 C-1.34 2.01 -0.68 1.02 0 0 Z " fill="#FFFFFF" transform="translate(203,174)"/>
<path d="M0 0 C0.33 0 0.66 0 1 0 C1 1.98 1 3.96 1 6 C0.67 6 0.34 6 0 6 C0 4.02 0 2.04 0 0 Z " fill="#FFFFFF" transform="translate(229,152)"/>
<path d="M0 0 C0.33 0.99 0.66 1.98 1 3 C0.34 3 -0.32 3 -1 3 C-0.67 2.01 -0.34 1.02 0 0 Z " fill="#FFFFFF" transform="translate(265,213)"/>
<path d="M0 0 C2 1 2 1 2 1 Z " fill="#FFFFFF" transform="translate(389,123)"/>
<path d="" fill="#FFFFFF" transform="translate(0,0)"/>
<path d="" fill="#FFFFFF" transform="translate(0,0)"/>
<path d="" fill="#FFFFFF" transform="translate(0,0)"/>
<path d="" fill="#FFFFFF" transform="translate(0,0)"/>
<path d="" fill="#FFFFFF" transform="translate(0,0)"/>
<path d="" fill="#FFFFFF" transform="translate(0,0)"/>
<path d="" fill="#FFFFFF" transform="translate(0,0)"/>
<path d="" fill="#FFFFFF" transform="translate(0,0)"/>
</svg>
