<?xml version="1.0" encoding="UTF-8"?>
<svg version="1.1" xmlns="http://www.w3.org/2000/svg" width="148" height="126">
<path d="M0 0 C3.52883541 2.62687561 4.55260859 5.02808397 5.26635742 9.3293457 C5.36408447 10.02503662 5.46181152 10.72072754 5.5625 11.4375 C5.67762939 12.17250732 5.79275879 12.90751465 5.91137695 13.66479492 C6.15789002 15.26006528 6.39643299 16.85658302 6.62792969 18.45410156 C7.01396988 21.09558917 7.43102359 23.73098759 7.8515625 26.3671875 C9.29344548 35.63074637 10.52527593 44.60339725 10 54 C7.64887796 53.056332 6.28558657 52.49305981 4.99421692 50.26353455 C4.75740707 49.56676102 4.52059723 48.86998749 4.27661133 48.15209961 C3.99985062 47.36044907 3.7230899 46.56879852 3.4379425 45.75315857 C3.15549179 44.89488968 2.87304108 44.03662079 2.58203125 43.15234375 C2.27931808 42.26648087 1.97660492 41.38061798 1.66471863 40.46791077 C1.02661169 38.58981331 0.39579906 36.70922415 -0.22827148 34.82641602 C-1.17770606 31.96699648 -2.15221796 29.11711537 -3.13085938 26.26757812 C-3.74891898 24.43801384 -4.36550227 22.60795004 -4.98046875 20.77734375 C-5.26899216 19.93324448 -5.55751556 19.0891452 -5.8547821 18.21946716 C-7.64100932 12.78191357 -8.543087 7.70836638 -9 2 C-5.50875983 -0.32749345 -4.10777749 -0.50299316 0 0 Z " fill="#F3787E" transform="translate(86,10)"/>
<path d="M0 0 C3.470396 0.15088678 5.53844019 0.69229346 8.4375 2.625 C10.23071573 5.35068791 10.22993306 6.77693355 9.68432617 9.94433594 C8.23938237 14.28483784 5.2145185 17.73980688 2.4375 21.3125 C1.80215332 22.1482959 1.16680664 22.9840918 0.51220703 23.84521484 C-0.74577006 25.49460537 -2.00992441 27.13930623 -3.28076172 28.77880859 C-4.7278191 30.64835248 -6.1529249 32.53086734 -7.56640625 34.42578125 C-12.89143616 41.40793621 -12.89143616 41.40793621 -17 42 C-18 40 -18 40 -17.13671875 37.078125 C-16.6641283 35.79816404 -16.18006498 34.52240776 -15.6875 33.25 C-15.42549805 32.56276855 -15.16349609 31.87553711 -14.89355469 31.16748047 C-12.38422138 24.73006453 -9.59252054 18.42110313 -6.75 12.125 C-6.09584106 10.6714209 -6.09584106 10.6714209 -5.4284668 9.18847656 C-4.80645386 7.83061035 -4.80645386 7.83061035 -4.171875 6.4453125 C-3.8015918 5.63594238 -3.43130859 4.82657227 -3.04980469 3.99267578 C-2 2 -2 2 0 0 Z " fill="#F6787D" transform="translate(135,23)"/>
<path d="M0 0 C3.89087883 1.34684267 5.86020177 4.02671364 8.3671875 7.13671875 C8.8835376 7.75804687 9.3998877 8.379375 9.93188477 9.01953125 C14.90599796 15.04269983 19.73105995 21.1899873 24.49169922 27.3828125 C25.35359286 28.46245123 26.24844626 29.51631175 27.16845703 30.546875 C30.7421875 34.5536708 30.7421875 34.5536708 30.7421875 38.94921875 C26.27731738 38.07834685 23.66849825 35.54223071 20.3671875 32.57421875 C14.87510866 27.73958585 9.26700869 23.12998834 3.44970703 18.69189453 C-0.0507941 15.9957727 -3.35241132 13.28745437 -6.2578125 9.94921875 C-6.2578125 6.33160611 -5.93156521 4.02722308 -4.0078125 0.94921875 C-2.2578125 -0.05078125 -2.2578125 -0.05078125 0 0 Z " fill="#F2777D" transform="translate(39.2578125,41.05078125)"/>
<path d="M0 0 C0 1.32 0 2.64 0 4 C-0.86689453 4.20157715 -1.73378906 4.4031543 -2.62695312 4.61083984 C-5.87740075 5.36699021 -9.12770966 6.12373155 -12.37792969 6.88085938 C-13.7782661 7.20693863 -15.17865564 7.53278983 -16.57910156 7.85839844 C-25.67016111 9.95737552 -25.67016111 9.95737552 -34.72265625 12.21484375 C-38.26609294 13.06374813 -41.36909524 13.22230029 -45 13 C-46 12 -46 12 -46.375 9.25 C-46 6 -46 6 -44.125 3.1875 C-40.98453849 0.98917695 -40.11265826 0.68450273 -36.49609375 0.40234375 C-35.16578125 0.29515015 -35.16578125 0.29515015 -33.80859375 0.18579102 C-32.41833984 0.09382446 -32.41833984 0.09382446 -31 0 C-30.09894531 -0.0606665 -29.19789062 -0.12133301 -28.26953125 -0.18383789 C-25.49290418 -0.35366898 -22.71618143 -0.49332729 -19.9375 -0.625 C-19.00873047 -0.6765625 -18.07996094 -0.728125 -17.12304688 -0.78125 C-11.2773434 -1.06020287 -5.79961076 -0.79544303 0 0 Z " fill="#F2777D" transform="translate(50,108)"/>
<path d="M0 0 C3.38027938 1.0671954 4.69206376 2.59303056 6.97265625 5.27734375 C7.67003906 6.08042969 8.36742187 6.88351563 9.0859375 7.7109375 C10.66015625 9.83984375 10.66015625 9.83984375 10.66015625 11.83984375 C8.34765625 12.52734375 8.34765625 12.52734375 5.66015625 12.83984375 C3.91015625 11.77734375 3.91015625 11.77734375 2.66015625 9.83984375 C1.97265625 6.65234375 1.97265625 6.65234375 1.66015625 3.83984375 C0.67015625 3.50984375 -0.31984375 3.17984375 -1.33984375 2.83984375 C-1.48421875 3.74734375 -1.62859375 4.65484375 -1.77734375 5.58984375 C-2.20393848 8.05461331 -2.69058596 10.42831482 -3.33984375 12.83984375 C-4.90234375 11.77734375 -4.90234375 11.77734375 -6.33984375 9.83984375 C-6.21548068 6.35767773 -5.95321263 3.82123396 -4.08984375 0.83984375 C-2.33984375 -0.16015625 -2.33984375 -0.16015625 0 0 Z " fill="#EC7982" transform="translate(39.33984375,41.16015625)"/>
<path d="M0 0 C3.38188161 0.30744378 5.58993491 0.72662328 8.4375 2.625 C10 5 10 5 9.9375 8.5625 C9.0558537 11.79520311 8.6294911 13.0564631 6 15 C4.875 8.25 4.875 8.25 6 6 C6.33 5.67 6.66 5.34 7 5 C2.46167247 3.18397483 2.46167247 3.18397483 -2 4 C-1.34 2.68 -0.68 1.36 0 0 Z " fill="#EC7681" transform="translate(135,23)"/>
<path d="M0 0 C-3.32307692 3.93846154 -3.32307692 3.93846154 -6.75 4.25 C-7.4925 4.1675 -8.235 4.085 -9 4 C-9 3.34 -9 2.68 -9 2 C-11.31 1.67 -13.62 1.34 -16 1 C-16 0.67 -16 0.34 -16 0 C-10.47032059 -0.71033431 -5.50016964 -1.30267176 0 0 Z " fill="#E97B80" transform="translate(25,109)"/>
<path d="M0 0 C0.99 0.33 1.98 0.66 3 1 C0.36 4.63 -2.28 8.26 -5 12 C-5.66 10.68 -6.32 9.36 -7 8 C-5.37660195 6.29115995 -3.70680947 4.62553283 -2 3 C-1.34 3 -0.68 3 0 3 C0 2.01 0 1.02 0 0 Z " fill="#E97880" transform="translate(137,39)"/>
<path d="M0 0 C0.33 0 0.66 0 1 0 C1 3.96 1 7.92 1 12 C-0.32 11.34 -1.64 10.68 -3 10 C-3.75 7.375 -3.75 7.375 -4 5 C-3.01 5.99 -2.02 6.98 -1 8 C-0.67 5.36 -0.34 2.72 0 0 Z " fill="#DD767D" transform="translate(95,52)"/>
<path d="M0 0 C0.86625 0.4640625 0.86625 0.4640625 1.75 0.9375 C3.91340309 2.09252028 3.91340309 2.09252028 6.125 2.3125 C8 3 8 3 9.25 5.5625 C9.4975 6.366875 9.745 7.17125 10 8 C6.05205855 6.32971708 3.18203882 3.8204435 0 1 C0 0.67 0 0.34 0 0 Z " fill="#E57883" transform="translate(41,57)"/>
<path d="M0 0 C0.95465783 2.16967689 1.14401212 3.56328793 0.3984375 5.82421875 C-0.35870385 7.5684743 -1.17609198 9.28627131 -2 11 C-2.66 11 -3.32 11 -4 11 C-3.52269162 9.5410574 -3.04308958 8.08286504 -2.5625 6.625 C-2.29566406 5.81289063 -2.02882812 5.00078125 -1.75390625 4.1640625 C-1 2 -1 2 0 0 Z " fill="#E5797F" transform="translate(132,27)"/>
<path d="M0 0 C1.65 0 3.3 0 5 0 C2.525 3.465 2.525 3.465 0 7 C-1 3 -1 3 0 0 Z " fill="#E4777F" transform="translate(126,52)"/>
<path d="M0 0 C2.9375 0.375 2.9375 0.375 6 1 C6.33 1.66 6.66 2.32 7 3 C5.88625 2.979375 4.7725 2.95875 3.625 2.9375 C0.16784079 2.73619282 0.16784079 2.73619282 -2 4 C-1.34 2.68 -0.68 1.36 0 0 Z " fill="#E07D83" transform="translate(135,23)"/>
</svg>
