<?xml version="1.0" encoding="UTF-8"?>
<svg version="1.1" xmlns="http://www.w3.org/2000/svg" width="321" height="264">
<path d="M0 0 C0.5775 0.2475 1.155 0.495 1.75 0.75 C1.75 1.41 1.75 2.07 1.75 2.75 C2.41 2.75 3.07 2.75 3.75 2.75 C4.74 5.39 5.73 8.03 6.75 10.75 C10.71 10.09 14.67 9.43 18.75 8.75 C18.75 13.66121923 17.73731641 14.2975605 14.4375 17.75 C11.09201522 21.26670584 11.09201522 21.26670584 8.08203125 25.0625 C7.64246094 25.619375 7.20289063 26.17625 6.75 26.75 C6.09 26.75 5.43 26.75 4.75 26.75 C4.481875 27.3275 4.21375 27.905 3.9375 28.5 C2.72070811 30.80550043 1.44666121 32.77056192 -0.25 34.75 C-0.91 34.75 -1.57 34.75 -2.25 34.75 C-3.60998403 37.3387163 -4.66150411 39.82251988 -5.4765625 42.62890625 C-10.63570018 59.91556134 -17.41152753 76.02410085 -26.25 91.75 C-27.57 91.75 -28.89 91.75 -30.25 91.75 C-28.85878325 78.27388554 -25.0342528 66.2829079 -19.4375 54 C-19.14278809 53.33959717 -18.84807617 52.67919434 -18.54443359 51.9987793 C-17.02680434 48.79344846 -15.5263004 46.07894655 -13.23193359 43.34741211 C-6.54131422 35.37711326 -6.20985854 28.71328728 -6.5 18.8125 C-6.53910612 16.71597741 -6.56632854 14.62092302 -6.57073975 12.52403259 C-6.5777326 10.64083156 -6.62222795 8.7578786 -6.66894531 6.87524414 C-6.25 3.75 -6.25 3.75 -4.37011719 1.31030273 C-2.25 -0.25 -2.25 -0.25 0 0 Z " fill="#FBB63D" transform="translate(240.25,25.25)"/>
<path d="M0 0 C1.65 0 3.3 0 5 0 C5.33209473 0.9744104 5.33209473 0.9744104 5.67089844 1.96850586 C6.69302603 4.95963835 7.7214702 7.94856322 8.75 10.9375 C9.09804687 11.95908203 9.44609375 12.98066406 9.8046875 14.03320312 C11.70910165 19.55247746 13.73150765 24.85211788 16.37207031 30.06469727 C17.13470467 32.41516483 16.79533983 33.69717639 16 36 C5.17525852 35.26194944 -5.74508839 29.35810672 -15 24 C-16.43060128 21.13879744 -16.38692581 19.15989415 -16 16 C-14 14.0625 -14 14.0625 -11 13 C-8.22170644 13.06162574 -5.75062959 13.48717075 -3 14 C-2.87625 12.80375 -2.7525 11.6075 -2.625 10.375 C-2.17674946 6.72403187 -1.29553163 3.45475101 0 0 Z " fill="#FBB741" transform="translate(77,57)"/>
<path d="M0 0 C7.51112817 1.38291529 13.44460041 4.72284483 20.0625 8.4375 C29.8558162 13.83463076 39.74327113 18.89038295 49.87719727 23.62280273 C51.21995728 24.25037476 51.21995728 24.25037476 52.58984375 24.890625 C53.37222412 25.25188477 54.15460449 25.61314453 54.96069336 25.98535156 C57 27 57 27 60 29 C59.67 30.65 59.34 32.3 59 34 C39.75783759 33.03789188 18.91950663 19.79153952 5.1640625 6.953125 C2.95814976 4.86688175 2.95814976 4.86688175 0 3 C0 2.01 0 1.02 0 0 Z " fill="#FBC464" transform="translate(94,94)"/>
<path d="M0 0 C3.483304 0.19904594 4.78833565 0.78245609 7.25 3.3125 C8.17705139 4.53385342 9.09162004 5.76469667 10 7 C10.71800781 7.91910156 11.43601563 8.83820312 12.17578125 9.78515625 C16.47306879 15.34842048 19.97667826 20.68227411 23 27 C23.65128216 28.28831804 24.30619586 29.57480707 24.96484375 30.859375 C38.5683871 57.62161292 38.5683871 57.62161292 38 67 C36.21484375 66.91015625 36.21484375 66.91015625 34 66 C32.66239456 63.81203751 31.60842967 61.76232284 30.5625 59.4375 C29.87142039 57.97975659 29.17579705 56.52416185 28.4765625 55.0703125 C28.09016602 54.26625977 27.70376953 53.46220703 27.30566406 52.63378906 C24.82040982 47.62052751 22.11841884 42.72305987 19.4375 37.8125 C18.58961914 36.25656128 18.58961914 36.25656128 17.72460938 34.66918945 C16.63435796 32.66896064 15.5435621 30.66902847 14.45214844 28.66943359 C12.63627402 25.33137528 10.84867116 21.97903251 9.0625 18.625 C6.57458703 13.97260275 3.89827749 9.47457715 1.06640625 5.0234375 C0 3 0 3 0 0 Z " fill="#FBC361" transform="translate(146,52)"/>
<path d="M0 0 C-0.33 1.65 -0.66 3.3 -1 5 C-1.99 5.33 -2.98 5.66 -4 6 C-4.30679688 6.61617188 -4.61359375 7.23234375 -4.9296875 7.8671875 C-8.75444394 15.48878245 -21.59115274 19.21492794 -28.9375 22.375 C-30.43724365 23.03653076 -30.43724365 23.03653076 -31.96728516 23.71142578 C-39.00806721 26.64632744 -45.38158521 27.80563113 -53 28 C-53 27.01 -53 26.02 -53 25 C-51.74123047 24.41605469 -51.74123047 24.41605469 -50.45703125 23.8203125 C-47.10331933 22.26202691 -43.75383301 20.69481107 -40.40527344 19.12548828 C-38.75580399 18.3536598 -37.10536126 17.58390891 -35.45410156 16.81591797 C-25.24969611 12.06559129 -15.24664111 7.24076787 -5.6171875 1.3984375 C-3 0 -3 0 0 0 Z " fill="#FBB53A" transform="translate(291,99)"/>
<path d="M0 0 C1.64396942 4.03334112 0.24428733 7.39260824 -1.0625 11.3125 C-1.40704224 12.37210938 -1.40704224 12.37210938 -1.75854492 13.453125 C-5.20739291 23.86579219 -9.33927894 33.91309437 -14.1875 43.75 C-14.52048096 44.42998047 -14.85346191 45.10996094 -15.1965332 45.81054688 C-16.79273071 48.97165176 -18.24825267 51.71681646 -21 54 C-20.65263698 35.27397561 -12.75077173 13.98600274 0 0 Z " fill="#FBB337" transform="translate(232,62)"/>
<path d="M0 0 C0.495 1.98 0.495 1.98 1 4 C-1.8074269 5.40371345 -4.34434868 5.32933953 -7.4765625 5.53515625 C-8.78753906 5.62216797 -10.09851563 5.70917969 -11.44921875 5.79882812 C-12.47861572 5.86372437 -12.47861572 5.86372437 -13.52880859 5.92993164 C-15.59640757 6.06069174 -17.66342081 6.19871961 -19.73046875 6.33789062 C-37.47419596 7.50860135 -37.47419596 7.50860135 -42 6 C-42 4.35 -42 2.7 -42 1 C-27.98555763 0.14879743 -14.03921478 -0.13088769 0 0 Z " fill="#FCCA72" transform="translate(104,207)"/>
<path d="M0 0 C-0.61150576 3.26864389 -1.73133084 5.31010844 -3.75 7.9375 C-4.23984375 8.58589844 -4.7296875 9.23429688 -5.234375 9.90234375 C-7.35501788 12.42178009 -9.65073812 14.69231798 -12 17 C-12.92039062 17.93199219 -13.84078125 18.86398438 -14.7890625 19.82421875 C-15.73436241 20.7786583 -16.67967498 21.73308532 -17.625 22.6875 C-18.10195312 23.17283203 -18.57890625 23.65816406 -19.0703125 24.15820312 C-21.29253046 26.39585315 -23.36369136 28.2424609 -26 30 C-26.99 30 -27.98 30 -29 30 C-29.36934334 26.75546082 -29.34203874 25.43200811 -27.27734375 22.82421875 C-26.50519531 22.11910156 -25.73304687 21.41398437 -24.9375 20.6875 C-21.92847323 17.84799586 -19.05945877 15.02419423 -16.375 11.875 C-6.16583166 0 -6.16583166 0 0 0 Z " fill="#FBB63D" transform="translate(113,224)"/>
<path d="M0 0 C0.66 0.33 1.32 0.66 2 1 C0.26502365 5.17220503 -2.60467416 8.34593474 -5.5 11.75 C-5.99886719 12.35199219 -6.49773437 12.95398438 -7.01171875 13.57421875 C-8.29418243 15.09048277 -9.64260271 16.55043376 -11 18 C-11.66 18 -12.32 18 -13 18 C-13.268125 18.5775 -13.53625 19.155 -13.8125 19.75 C-15.02929189 22.05550043 -16.30333879 24.02056192 -18 26 C-18.66 26 -19.32 26 -20 26 C-21.35998403 28.5887163 -22.41150411 31.07251988 -23.2265625 33.87890625 C-28.38570018 51.16556134 -35.16152753 67.27410085 -44 83 C-45.32 83 -46.64 83 -48 83 C-47.67 82.01 -47.34 81.02 -47 80 C-46.67 80.33 -46.34 80.66 -46 81 C-32.45169018 55.15139379 -32.45169018 55.15139379 -26 27 C-24.98046875 24.76171875 -24.98046875 24.76171875 -24 23 C-23.24203125 23.06960937 -22.4840625 23.13921875 -21.703125 23.2109375 C-18.98307478 23.25819048 -18.98307478 23.25819048 -17.296875 21.6015625 C-16.78640625 20.94929688 -16.2759375 20.29703125 -15.75 19.625 C-12.32285005 15.39367232 -8.71088403 11.39342171 -5.015625 7.39453125 C-3.03716879 5.04415595 -1.50128584 2.67475926 0 0 Z " fill="#FEFAF3" transform="translate(258,34)"/>
<path d="M0 0 C0.99 0.99 1.98 1.98 3 3 C1.11512036 9.76339166 -1.15197147 16.34697931 -3.5625 22.9375 C-4.01991577 24.19880737 -4.01991577 24.19880737 -4.48657227 25.4855957 C-4.78104248 26.28312256 -5.0755127 27.08064941 -5.37890625 27.90234375 C-5.6426001 28.61898193 -5.90629395 29.33562012 -6.17797852 30.07397461 C-7 32 -7 32 -9 35 C-9.99 35 -10.98 35 -12 35 C-12.6286477 27.46533839 -10.40836777 21.65207781 -7.6875 14.6875 C-7.28337891 13.60404297 -6.87925781 12.52058594 -6.46289062 11.40429688 C-3.13767 2.70465463 -3.13767 2.70465463 0 0 Z " fill="#FBB741" transform="translate(143,155)"/>
<path d="M0 0 C4.36906508 1.47250087 5.79103007 4.64355572 7.8125 8.5 C11.16403918 14.64026674 14.88414082 20.33791264 19 26 C21 29 21 29 21 32 C17.87508663 31.68102095 16.33288542 31.31134577 14.0078125 29.13671875 C0.61792499 11.71875304 0.61792499 11.71875304 -1 1 C-0.67 0.67 -0.34 0.34 0 0 Z " fill="#FCCB75" transform="translate(95,161)"/>
<path d="M0 0 C0.99 0 1.98 0 3 0 C2.67 1.65 2.34 3.3 2 5 C1.01 5.33 0.02 5.66 -1 6 C-1.30679688 6.61617188 -1.61359375 7.23234375 -1.9296875 7.8671875 C-5.75444394 15.48878245 -18.59115274 19.21492794 -25.9375 22.375 C-27.43724365 23.03653076 -27.43724365 23.03653076 -28.96728516 23.71142578 C-36.00806721 26.64632744 -42.38158521 27.80563113 -50 28 C-50 27.01 -50 26.02 -50 25 C-49.01 25 -48.02 25 -47 25 C-31.00454789 24.00184386 -13.57225564 16.1326468 -1.8125 5.25 C0.31366477 3.09216156 0.31366477 3.09216156 0 0 Z " fill="#FEF9F1" transform="translate(288,99)"/>
<path d="M0 0 C0.78375 0.04125 1.5675 0.0825 2.375 0.125 C2.705 1.115 3.035 2.105 3.375 3.125 C4.035 3.125 4.695 3.125 5.375 3.125 C7.375 6.125 7.375 6.125 7.125 8.25 C6.375 10.125 6.375 10.125 4.375 11.125 C-1.82356887 11.57580501 -1.82356887 11.57580501 -4.625 10 C-6.15232345 7.13626853 -5.46778671 5.17199809 -4.625 2.125 C-2.625 0.125 -2.625 0.125 0 0 Z " fill="#FCC970" transform="translate(305.625,87.875)"/>
<path d="M0 0 C0.66 0 1.32 0 2 0 C1.38849424 3.26864389 0.26866916 5.31010844 -1.75 7.9375 C-2.23984375 8.58589844 -2.7296875 9.23429688 -3.234375 9.90234375 C-5.35501788 12.42178009 -7.65073812 14.69231798 -10 17 C-10.92039062 17.93199219 -11.84078125 18.86398438 -12.7890625 19.82421875 C-13.73436241 20.7786583 -14.67967498 21.73308532 -15.625 22.6875 C-16.10195312 23.17283203 -16.57890625 23.65816406 -17.0703125 24.15820312 C-19.29253046 26.39585315 -21.36369136 28.2424609 -24 30 C-24.99 30 -25.98 30 -27 30 C-27 29.34 -27 28.68 -27 28 C-26.030625 27.54625 -25.06125 27.0925 -24.0625 26.625 C-18.63910428 23.52591673 -15.01923216 18.68130202 -11 14 C-8.62201246 11.40313373 -6.23650865 8.81343265 -3.84765625 6.2265625 C-2.16954294 4.20431179 -1.04521107 2.39687145 0 0 Z " fill="#FEF9F1" transform="translate(111,224)"/>
<path d="M0 0 C0.66 0 1.32 0 2 0 C2.22139648 0.64960693 2.44279297 1.29921387 2.67089844 1.96850586 C3.69302603 4.95963835 4.7214702 7.94856322 5.75 10.9375 C6.09804687 11.95908203 6.44609375 12.98066406 6.8046875 14.03320312 C8.70910165 19.55247746 10.73150765 24.85211788 13.37207031 30.06469727 C14.13470467 32.41516483 13.79533983 33.69717639 13 36 C10.6568787 35.74438677 8.32156597 35.40729228 6 35 C5.67 34.34 5.34 33.68 5 33 C6.65 33 8.3 33 10 33 C7.91237969 24.51034409 5.14264546 16.27376869 2.33764648 7.99926758 C2.03673096 7.11005615 1.73581543 6.22084473 1.42578125 5.3046875 C1.15161377 4.50015137 0.87744629 3.69561523 0.5949707 2.86669922 C0 1 0 1 0 0 Z " fill="#FEF5E5" transform="translate(80,57)"/>
<path d="M0 0 C2.34316409 2.14277566 3.74640689 4.13729691 5.12109375 6.9921875 C5.49758057 7.77384277 5.87406738 8.55549805 6.26196289 9.36083984 C6.64989014 10.1905127 7.03781738 11.02018555 7.4375 11.875 C7.83638428 12.72400879 8.23526855 13.57301758 8.64624023 14.44775391 C16.36738662 31.21466773 16.36738662 31.21466773 16 40 C14.68 39.67 13.36 39.34 12 39 C12.29197266 37.68128906 12.29197266 37.68128906 12.58984375 36.3359375 C13.69165653 27.37452692 7.82314035 18.24677378 3.73071289 10.52001953 C1.9007377 7.02766049 0.50709739 3.92811259 0 0 Z " fill="#FEF2DE" transform="translate(168,79)"/>
<path d="M0 0 C0.99 0.99 1.98 1.98 3 3 C1.11512036 9.76339166 -1.15197147 16.34697931 -3.5625 22.9375 C-4.01991577 24.19880737 -4.01991577 24.19880737 -4.48657227 25.4855957 C-4.78104248 26.28312256 -5.0755127 27.08064941 -5.37890625 27.90234375 C-5.6426001 28.61898193 -5.90629395 29.33562012 -6.17797852 30.07397461 C-7 32 -7 32 -9 35 C-9.99 34.67 -10.98 34.34 -12 34 C-11.38125 33.071875 -11.38125 33.071875 -10.75 32.125 C-6.68229069 24.86123338 -4.25837933 16.97782522 -2 9 C-1.68869141 7.95392578 -1.68869141 7.95392578 -1.37109375 6.88671875 C-0.33969748 3.50102292 -0.33969748 3.50102292 0 0 Z " fill="#FEF9F1" transform="translate(143,155)"/>
<path d="M0 0 C0.99 0.33 1.98 0.66 3 1 C2.67 2.65 2.34 4.3 2 6 C-3.95507399 5.6083965 -8.62819824 4.62875405 -14 2 C-11.01316063 0.50658031 -9.04839022 1.59351324 -5.875 2.4375 C-4.77929688 2.72496094 -3.68359375 3.01242188 -2.5546875 3.30859375 C-1.71164063 3.53675781 -0.86859375 3.76492187 0 4 C0 2.68 0 1.36 0 0 Z " fill="#FEFDFA" transform="translate(151,122)"/>
<path d="M0 0 C4.15983896 3.80328133 7.49856366 7.91197205 10 13 C10 13.99 10 14.98 10 16 C8.35 15.67 6.7 15.34 5 15 C5 14.01 5 13.02 5 12 C5.66 12.33 6.32 12.66 7 13 C6.24203125 11.84371094 6.24203125 11.84371094 5.46875 10.6640625 C4.8190625 9.66117188 4.169375 8.65828125 3.5 7.625 C2.8503125 6.62726563 2.200625 5.62953125 1.53125 4.6015625 C0 2 0 2 0 0 Z " fill="#FEF9EF" transform="translate(106,177)"/>
<path d="M0 0 C8.71428571 1.85714286 8.71428571 1.85714286 11 5 C9.02 4.34 7.04 3.68 5 3 C6.98 5.97 6.98 5.97 9 9 C5.55862568 7.4705003 2.7777867 5.54630448 0 3 C0 2.01 0 1.02 0 0 Z " fill="#FEF9F1" transform="translate(94,94)"/>
<path d="M0 0 C3.10190545 4.65285818 4.33846504 9.41532676 4 15 C2.68 14.67 1.36 14.34 0 14 C0.185625 13.175 0.37125 12.35 0.5625 11.5 C1.0774084 7.38073281 0.63492928 4.09176645 0 0 Z " fill="#FEFDFA" transform="translate(180,104)"/>
<path d="M0 0 C1.5625 1.25 1.5625 1.25 3 3 C2.6875 5.1875 2.6875 5.1875 2 7 C-0.3431213 6.74438677 -2.67843403 6.40729228 -5 6 C-5.33 5.34 -5.66 4.68 -6 4 C-4.35 4 -2.7 4 -1 4 C-0.67 2.68 -0.34 1.36 0 0 Z " fill="#FEFDFB" transform="translate(91,86)"/>
</svg>
