<?xml version="1.0" encoding="UTF-8"?>
<svg version="1.1" xmlns="http://www.w3.org/2000/svg" width="112" height="165">
<path d="M0 0 C0.7425 0.2475 1.485 0.495 2.25 0.75 C0.75579896 4.74195609 -1.10921917 8.39267806 -3.1640625 12.125 C-3.49739594 12.73077881 -3.83072937 13.33655762 -4.17416382 13.96069336 C-4.88045804 15.24233049 -5.5882215 16.52315891 -6.29736328 17.80322266 C-7.35508834 19.71402909 -8.40639101 21.62825981 -9.45703125 23.54296875 C-12.88585063 29.76913647 -16.38350489 35.95706963 -20.0234375 42.0625 C-20.64395996 43.11050781 -21.26448242 44.15851562 -21.90380859 45.23828125 C-23.74236451 47.73961202 -24.8753714 48.70150325 -27.75 49.75 C-28.41 49.09 -29.07 48.43 -29.75 47.75 C-29.40057915 43.91486351 -28.03116073 41.0965772 -26.125 37.79296875 C-25.58738037 36.85235596 -25.04976074 35.91174316 -24.49584961 34.94262695 C-23.91971924 33.95093506 -23.34358887 32.95924316 -22.75 31.9375 C-21.56342121 29.87261465 -20.37722527 27.80750926 -19.19140625 25.7421875 C-18.31379639 24.21996582 -18.31379639 24.21996582 -17.41845703 22.66699219 C-15.9297172 20.06420268 -14.46927455 17.44923507 -13.02734375 14.8203125 C-12.42696289 13.72940308 -12.42696289 13.72940308 -11.81445312 12.61645508 C-11.08567205 11.2881979 -10.36139577 9.95745474 -9.64257812 8.6237793 C-4.64324058 -0.42211278 -4.64324058 -0.42211278 0 0 Z " fill="#FBC15C" transform="translate(70.75,16.25)"/>
<path d="M0 0 C1.8125 0.0625 1.8125 0.0625 4 1 C6.45258151 5.66562571 7.80802705 10.50647727 9.04296875 15.62109375 C9.21629227 16.32468521 9.38961578 17.02827667 9.56819153 17.75318909 C9.93000484 19.23061479 10.28866512 20.70881595 10.64428711 22.18774414 C11.18588511 24.43081182 11.74371434 26.66942242 12.30273438 28.90820312 C12.65463902 30.35392527 13.00558259 31.79988177 13.35546875 33.24609375 C13.52104782 33.9046788 13.68662689 34.56326385 13.85722351 35.24180603 C15.19433479 40.90617362 15.86666016 46.40001953 14 52 C13.34 52 12.68 52 12 52 C8.4608812 43.27149408 5.55364422 34.55211737 3.1875 25.4375 C2.87619141 24.30892578 2.56488281 23.18035156 2.24414062 22.01757812 C0.28742787 14.539065 -0.40191186 7.7203854 0 0 Z " fill="#FBC059" transform="translate(6,11)"/>
<path d="M0 0 C3.51996771 0.26259084 4.82731928 0.83154475 7.39453125 3.3359375 C8.19246094 4.33882813 8.99039063 5.34171875 9.8125 6.375 C10.23901855 6.90722168 10.66553711 7.43944336 11.10498047 7.98779297 C12.421591 9.64518481 13.7143523 11.31850427 15 13 C16.20076172 14.57007812 16.20076172 14.57007812 17.42578125 16.171875 C23 23.65697158 23 23.65697158 23 26 C23.66 26 24.32 26 25 26 C26.2890625 27.64453125 26.2890625 27.64453125 27.625 29.8125 C28.07101563 30.52019531 28.51703125 31.22789062 28.9765625 31.95703125 C30 34 30 34 30 37 C28.515 37.495 28.515 37.495 27 38 C21.05413926 31.63764176 15.60553099 25.06622989 10.37109375 18.1171875 C8.28575552 15.375672 6.12615569 12.72111244 3.9375 10.0625 C1.35800119 6.78060245 0.11006543 4.29255178 0 0 Z " fill="#FBBD52" transform="translate(44,110)"/>
<path d="M0 0 C0.7336377 0.00008057 1.46727539 0.00016113 2.22314453 0.00024414 C9.56009353 0.07628714 16.76348093 0.85866031 23.75 3.1875 C23.75 4.1775 23.75 5.1675 23.75 6.1875 C7.91 6.1875 -7.93 6.1875 -24.25 6.1875 C-23.92 5.1975 -23.59 4.2075 -23.25 3.1875 C-15.77187304 0.44043296 -7.90505334 -0.00823252 0 0 Z " fill="#FBB337" transform="translate(78.25,83.8125)"/>
<path d="M0 0 C0 0.99 0 1.98 0 3 C-15.84 3 -31.68 3 -48 3 C-48 2.67 -48 2.34 -48 2 C-47.175 1.97494385 -46.35 1.9498877 -45.5 1.92407227 C-25.05786702 1.32270668 -25.05786702 1.32270668 -4.640625 0.18359375 C-3.09626808 0.07621982 -1.54808509 0 0 0 Z " fill="#FFFFFF" transform="translate(102,87)"/>
<path d="M0 0 C0 0.99 0 1.98 0 3 C-5.94 2.67 -11.88 2.34 -18 2 C-18 1.67 -18 1.34 -18 1 C-15.37504621 0.83257698 -12.75004205 0.6660283 -10.125 0.5 C-9.00544922 0.42845703 -9.00544922 0.42845703 -7.86328125 0.35546875 C-2.2265625 0 -2.2265625 0 0 0 Z " fill="#FDE5BC" transform="translate(102,87)"/>
</svg>
