<?xml version="1.0" encoding="UTF-8"?>
<svg version="1.1" xmlns="http://www.w3.org/2000/svg" width="122" height="110">
<path d="M0 0 C7.23944955 7.07302543 10.96145225 16.59473548 11.21777344 26.53710938 C11.40578331 43.09337232 11.40578331 43.09337232 5.875 50.3125 C5.24980469 51.13878906 4.62460938 51.96507813 3.98046875 52.81640625 C-4.62222964 63.01515258 -17.04036948 69.26382223 -30.125 71.3125 C-33.43687176 71.56324318 -36.742581 71.62347777 -40.0625 71.6875 C-48.68943656 72.02687163 -54.66884739 73.29404371 -62.26269531 77.49511719 C-63.91827521 78.40764677 -65.57685285 79.31475399 -67.23803711 80.21704102 C-68.92481968 81.13953272 -70.60078796 82.08214578 -72.26391602 83.04663086 C-76.17969798 85.21946882 -78.5223579 86.30595601 -83.08203125 86.35546875 C-86.125 85.3125 -86.125 85.3125 -87.74609375 83.71875 C-88.33274323 79.9932234 -86.7204041 77.1225445 -85.1875 73.8125 C-82.87517055 69.09424567 -82.87517055 69.09424567 -82.265625 63.9765625 C-83.14216447 61.99874593 -83.14216447 61.99874593 -85.8125 60.1875 C-93.58564668 54.03608896 -97.31529435 43.7677037 -99.125 34.3125 C-100.42396531 22.44341352 -99.29008794 12.36648647 -91.875 2.6875 C-83.20444868 -6.41900082 -70.23819345 -10.73321566 -58.125 -12.6875 C-56.825625 -12.914375 -55.52625 -13.14125 -54.1875 -13.375 C-35.5107452 -15.21141731 -15.01933531 -12.09610898 0 0 Z M-83.90234375 6.87109375 C-90.2083009 13.54708262 -91.72118321 21.26332699 -91.48046875 30.25 C-90.37908193 39.7388711 -86.30015383 47.77538634 -78.9375 53.8125 C-76.38774983 55.99120444 -75.23648428 57.04259068 -73.9375 60.1875 C-74.15912784 63.88129732 -75.16080238 66.8415068 -76.53125 70.26171875 C-77.38409749 72.48118124 -77.38409749 72.48118124 -76.125 75.3125 C-75.40135254 74.85810547 -75.40135254 74.85810547 -74.66308594 74.39453125 C-58.22247881 64.23153112 -58.22247881 64.23153112 -49.24609375 65.078125 C-34.08710786 66.21647187 -18.0072253 61.77213567 -6.125 52.3125 C-3.72996251 49.82948154 -1.87593816 47.27837485 -0.125 44.3125 C0.49375 43.28125 1.1125 42.25 1.75 41.1875 C4.98871949 32.69313393 3.32769537 22.92281466 0.140625 14.71484375 C-4.70136744 5.52402478 -14.30655351 0.2674731 -23.92578125 -2.90234375 C-43.25275825 -7.64559452 -68.20494987 -6.89431319 -83.90234375 6.87109375 Z " fill="#010101" transform="translate(103.125,22.6875)"/>
<path d="M0 0 C1.32 0 2.64 0 4 0 C4.33 1.65 4.66 3.3 5 5 C6.4540625 5.4021875 6.4540625 5.4021875 7.9375 5.8125 C11.60093787 6.85282718 15.19333502 8.06374307 18.7890625 9.31640625 C24.10650357 10.96049139 29.10019116 11.19268329 34.625 11.1875 C35.82008179 11.18737915 35.82008179 11.18737915 37.03930664 11.18725586 C44.2735058 11.11763283 51.11526719 10.29491094 58 8 C58 7.34 58 6.68 58 6 C59.32 6 60.64 6 62 6 C62.495 8.475 62.495 8.475 63 11 C54.82253332 19.17746668 43.17774312 18.77892 32.16503906 19.00683594 C20.15968433 18.96892999 6.95406297 16.58097701 -2 8 C-1.78947368 1.78947368 -1.78947368 1.78947368 0 0 Z " fill="#010102" transform="translate(29,52)"/>
<path d="M0 0 C5.71428571 0.71428571 5.71428571 0.71428571 7 2 C7.125 5 7.125 5 7 8 C6 9 6 9 3.5625 9.25 C2.716875 9.1675 1.87125 9.085 1 9 C-1.14809171 5.77786243 -1.29386153 4.72224599 -1 1 C-0.67 0.67 -0.34 0.34 0 0 Z " fill="#010103" transform="translate(55,42)"/>
<path d="M0 0 C3.25696479 0.41755959 4.63443291 0.63443291 7 3 C7.125 5.625 7.125 5.625 7 8 C5.02 8.99 5.02 8.99 3 10 C-0.91941982 6.69298952 -0.91941982 6.69298952 -1.3125 3.3125 C-1 1 -1 1 0 0 Z " fill="#000103" transform="translate(39,40)"/>
</svg>
